<svg xmlns="http://www.w3.org/2000/svg" width="960" height="500"><defs><style type="text/css"><![CDATA[ 
.current {
  fill: #5fa04e;
}
.active {
  fill: #229ad6;
}
.maintenance {
  fill: #b1bcc2;
}
.unstable {
  fill: #e99c40;
}
.bar-join {
  fill: #ffffff;
}
.bar-join.unstable, .bar-join.current {
  display: none;
}
.tick text {
  font: 16px sans-serif;
  fill: #89a19d;
}
.axis--y .tick text {
  text-anchor: end;
}
.label {
  fill: #fff;
  font: 20px sans-serif;
  font-weight: 100;
  text-anchor: start;
  dominant-baseline: middle;
  text-transform: uppercase;
} ]]></style></defs><g id="bar-container" transform="translate(110, 30)"><g class="axis axis--x" fill="none" font-size="10" font-family="sans-serif" text-anchor="middle"><g class="tick" opacity="1" transform="translate(30.658780134046317,0)"><line stroke="#89a19d" y2="440" x1="0.5" x2="0.5"></line><text fill="#000" y="0" x="0.5" dy="-10">Jul 2025</text></g><g class="tick" opacity="1" transform="translate(134.24046404371148,0)"><line stroke="#89a19d" y2="440" x1="0.5" x2="0.5" stroke-dasharray="2,2"></line><text fill="#000" y="0" x="0.5" dy="-10">Oct 2025</text></g><g class="tick" opacity="1" transform="translate(237.8690599479009,0)"><line stroke="#89a19d" y2="440" x1="0.5" x2="0.5"></line><text fill="#000" y="0" x="0.5" dy="-10">Jan 2026</text></g><g class="tick" opacity="1" transform="translate(339.1520561258751,0)"><line stroke="#89a19d" y2="440" x1="0.5" x2="0.5" stroke-dasharray="2,2"></line><text fill="#000" y="0" x="0.5" dy="-10">Apr 2026</text></g><g class="tick" opacity="1" transform="translate(441.607852166957,0)"><line stroke="#89a19d" y2="440" x1="0.5" x2="0.5"></line><text fill="#000" y="0" x="0.5" dy="-10">Jul 2026</text></g><g class="tick" opacity="1" transform="translate(545.1895360766222,0)"><line stroke="#89a19d" y2="440" x1="0.5" x2="0.5" stroke-dasharray="2,2"></line><text fill="#000" y="0" x="0.5" dy="-10">Oct 2026</text></g><g class="tick" opacity="1" transform="translate(648.8181319808115,0)"><line stroke="#89a19d" y2="440" x1="0.5" x2="0.5"></line><text fill="#000" y="0" x="0.5" dy="-10">Jan 2027</text></g><g class="tick" opacity="1" transform="translate(750.1011281587857,0)"><line stroke="#89a19d" y2="440" x1="0.5" x2="0.5" stroke-dasharray="2,2"></line><text fill="#000" y="0" x="0.5" dy="-10">Apr 2027</text></g></g><g class="axis axis--y" fill="none" font-size="10" font-family="sans-serif" text-anchor="start"><g class="tick" opacity="1" transform="translate(0,45.39682539682538)"><line stroke="#e1e7e7" x2="820" y1="0.5" y2="0.5"></line><text fill="#000" x="0" y="0.5" dy="0.32em" dx="-10">Main</text></g><g class="tick" opacity="1" transform="translate(0,115.23809523809523)"><line stroke="#e1e7e7" x2="820" y1="0.5" y2="0.5"></line><text fill="#000" x="0" y="0.5" dy="0.32em" dx="-10">Node.js 20</text></g><g class="tick" opacity="1" transform="translate(0,185.0793650793651)"><line stroke="#e1e7e7" x2="820" y1="0.5" y2="0.5"></line><text fill="#000" x="0" y="0.5" dy="0.32em" dx="-10">Node.js 22</text></g><g class="tick" opacity="1" transform="translate(0,254.92063492063494)"><line stroke="#e1e7e7" x2="820" y1="0.5" y2="0.5"></line><text fill="#000" x="0" y="0.5" dy="0.32em" dx="-10">Node.js 24</text></g><g class="tick" opacity="1" transform="translate(0,324.7619047619048)"><line stroke="#e1e7e7" x2="820" y1="0.5" y2="0.5"></line><text fill="#000" x="0" y="0.5" dy="0.32em" dx="-10">Node.js 25</text></g><g class="tick" opacity="1" transform="translate(0,394.6031746031747)"><line stroke="#e1e7e7" x2="820" y1="0.5" y2="0.5"></line><text fill="#000" x="0" y="0.5" dy="0.32em" dx="-10">Node.js 26</text></g><line y1="440" y2="440" x2="820" stroke="#89a19d"></line></g><g><rect class="bar unstable" x="0" y="20.952380952380935" width="820" height="48.88888888888889"></rect><rect class="bar-join unstable" x="-1" y="20.952380952380935" width="2" height="48.88888888888889" style="opacity: 0;"></rect><text class="label" x="15" y="47.39682539682538" style="opacity: 1;">unstable</text></g><g><rect class="bar maintenance" x="0" y="90.79365079365078" width="371.8966283038399" height="48.88888888888889"></rect><rect class="bar-join maintenance" x="-1" y="90.79365079365078" width="2" height="48.88888888888889" style="opacity: 0;"></rect><text class="label" x="15" y="117.23809523809523" style="opacity: 1;">maintenance</text></g><g><rect class="bar maintenance" x="156.8520454044264" y="160.63492063492063" width="625.993654932324" height="48.88888888888889"></rect><rect class="bar-join maintenance" x="155.8520454044264" y="160.63492063492063" width="2" height="48.88888888888889" style="opacity: 1;"></rect><text class="label" x="171.8520454044264" y="187.0793650793651" style="opacity: 1;">maintenance</text></g><g><rect class="bar active" x="0" y="160.63492063492063" width="156.8520454044264" height="48.88888888888889"></rect><rect class="bar-join active" x="-1" y="160.63492063492063" width="2" height="48.88888888888889" style="opacity: 0;"></rect><text class="label" x="15" y="187.0793650793651" style="opacity: 1;">active</text></g><g><rect class="bar maintenance" x="566.6752295687537" y="230.47619047619048" width="253.3247704312463" height="48.88888888888889"></rect><rect class="bar-join maintenance" x="565.6752295687537" y="230.47619047619048" width="2" height="48.88888888888889" style="opacity: 1;"></rect><text class="label" x="581.6752295687537" y="256.92063492063494" style="opacity: 1;">maintenance</text></g><g><rect class="bar active" x="164.73326048450963" y="230.47619047619048" width="401.9419690842441" height="48.88888888888889"></rect><rect class="bar-join active" x="163.73326048450963" y="230.47619047619048" width="2" height="48.88888888888889" style="opacity: 1;"></rect><text class="label" x="179.73326048450963" y="256.92063492063494" style="opacity: 1;">active</text></g><g><rect class="bar current" x="0" y="230.47619047619048" width="164.73326048450963" height="48.88888888888889"></rect><rect class="bar-join current" x="-1" y="230.47619047619048" width="2" height="48.88888888888889" style="opacity: 0;"></rect><text class="label" x="15" y="256.92063492063494" style="opacity: 1;">current</text></g><g><rect class="bar maintenance" x="339.24588011492375" y="300.31746031746036" width="68.67915998358228" height="48.88888888888889"></rect><rect class="bar-join maintenance" x="338.24588011492375" y="300.31746031746036" width="2" height="48.88888888888889" style="opacity: 1;"></rect><text class="label" x="354.24588011492375" y="326.7619047619048" style="opacity: 0;">maintenance</text></g><g><rect class="bar current" x="150.09671819292652" y="300.31746031746036" width="189.14916192199723" height="48.88888888888889"></rect><rect class="bar-join current" x="149.09671819292652" y="300.31746031746036" width="2" height="48.88888888888889" style="opacity: 0;"></rect><text class="label" x="165.09671819292652" y="326.7619047619048" style="opacity: 1;">current</text></g><g><rect class="bar active" x="575.6823325174203" y="370.15873015873024" width="244.31766748257974" height="48.88888888888889"></rect><rect class="bar-join active" x="574.6823325174203" y="370.15873015873024" width="2" height="48.88888888888889" style="opacity: 1;"></rect><text class="label" x="590.6823325174203" y="396.6031746031747" style="opacity: 1;">active</text></g><g><rect class="bar current" x="362.88952535517336" y="370.15873015873024" width="212.7928071622469" height="48.88888888888889"></rect><rect class="bar-join current" x="361.88952535517336" y="370.15873015873024" width="2" height="48.88888888888889" style="opacity: 0;"></rect><text class="label" x="377.88952535517336" y="396.6031746031747" style="opacity: 1;">current</text></g></g></svg>