<svg xmlns="http://www.w3.org/2000/svg" width="960" height="500"><defs><style>.current{fill:#2aa748}.active{fill:#47b4ff}.maintenance,.tick text{fill:#89a19d}.unstable{fill:#ffb800}.bar-join,.label{fill:#fff}.bar-join.current{display:none}.tick text{font:16px sans-serif}.axis--y .tick text{text-anchor:end}.label{font:20px sans-serif;font-weight:100;text-anchor:start;dominant-baseline:middle;text-transform:uppercase}</style></defs><g id="bar-container"><g class="axis axis--x" fill="none" font-size="10" font-family="sans-serif" text-anchor="middle"><g class="tick"><path stroke="#89a19d" d="M.5 0v440" transform="translate(146.366 30)"/><text fill="#000" x=".5" dy="-10" transform="translate(146.366 30)">Jan 2022</text></g><g class="tick"><path stroke="#89a19d" stroke-dasharray="2,2" d="M.5 0v440" transform="translate(251.897 30)"/><text fill="#000" x=".5" dy="-10" transform="translate(251.897 30)">Apr 2022</text></g><g class="tick"><path stroke="#89a19d" d="M.5 0v440" transform="translate(358.65 30)"/><text fill="#000" x=".5" dy="-10" transform="translate(358.65 30)">Jul 2022</text></g><g class="tick"><path stroke="#89a19d" stroke-dasharray="2,2" d="M.5 0v440" transform="translate(466.575 30)"/><text fill="#000" x=".5" dy="-10" transform="translate(466.575 30)">Oct 2022</text></g><g class="tick"><path stroke="#89a19d" d="M.5 0v440" transform="translate(574.55 30)"/><text fill="#000" x=".5" dy="-10" transform="translate(574.55 30)">Jan 2023</text></g><g class="tick"><path stroke="#89a19d" stroke-dasharray="2,2" d="M.5 0v440" transform="translate(680.08 30)"/><text fill="#000" x=".5" dy="-10" transform="translate(680.08 30)">Apr 2023</text></g><g class="tick"><path stroke="#89a19d" d="M.5 0v440" transform="translate(786.832 30)"/><text fill="#000" x=".5" dy="-10" transform="translate(786.832 30)">Jul 2023</text></g><g class="tick"><path stroke="#89a19d" stroke-dasharray="2,2" d="M.5 0v440" transform="translate(894.758 30)"/><text fill="#000" x=".5" dy="-10" transform="translate(894.758 30)">Oct 2023</text></g></g><g class="axis axis--y" fill="none" font-size="10" font-family="sans-serif"><g class="tick"><path stroke="#e1e7e7" d="M0 .5h820" transform="translate(110 75.397)"/><text fill="#000" y=".5" dy=".32em" dx="-10" transform="translate(110 75.397)">Master</text></g><g class="tick"><path stroke="#e1e7e7" d="M0 .5h820" transform="translate(110 145.238)"/><text fill="#000" y=".5" dy=".32em" dx="-10" transform="translate(110 145.238)">Node.js 12</text></g><g class="tick"><path stroke="#e1e7e7" d="M0 .5h820" transform="translate(110 215.08)"/><text fill="#000" y=".5" dy=".32em" dx="-10" transform="translate(110 215.08)">Node.js 14</text></g><g class="tick"><path stroke="#e1e7e7" d="M0 .5h820" transform="translate(110 284.92)"/><text fill="#000" y=".5" dy=".32em" dx="-10" transform="translate(110 284.92)">Node.js 16</text></g><g class="tick"><path stroke="#e1e7e7" d="M0 .5h820" transform="translate(110 354.762)"/><text fill="#000" y=".5" dy=".32em" dx="-10" transform="translate(110 354.762)">Node.js 17</text></g><g class="tick"><path stroke="#e1e7e7" d="M0 .5h820" transform="translate(110 424.603)"/><text fill="#000" y=".5" dy=".32em" dx="-10" transform="translate(110 424.603)">Node.js 18</text></g><path stroke="#89a19d" d="M0 440h820" transform="translate(110 30)"/></g><path class="bar unstable" d="M0 20.952h820v48.889H0z" transform="translate(110 30)"/><text class="label" x="15" y="47.397" style="opacity:1" transform="translate(110 30)">unstable</text><path class="bar maintenance" d="M0 90.794h175.966v48.889H0z" transform="translate(110 30)"/><text class="label" x="15" y="117.238" style="opacity:1" transform="translate(110 30)">maintenance</text><path class="bar maintenance" d="M0 160.635h604.149v48.889H0z" transform="translate(110 30)"/><text class="label" x="15" y="187.079" style="opacity:1" transform="translate(110 30)">maintenance</text><path class="bar maintenance" d="M376.567 230.476H820v48.889H376.567z" transform="translate(110 30)"/><path class="bar-join maintenance" style="opacity:1" d="M375.567 230.476h2v48.889h-2z" transform="translate(110 30)"/><text class="label" x="391.567" y="256.921" style="opacity:1" transform="translate(110 30)">maintenance</text><path class="bar active" d="M0 230.476h376.567v48.889H0z" transform="translate(110 30)"/><text class="label" x="15" y="256.921" style="opacity:1" transform="translate(110 30)">active</text><path class="bar maintenance" d="M141.946 300.317h71.559v48.889h-71.559z" transform="translate(110 30)"/><path class="bar-join maintenance" style="opacity:1" d="M140.946 300.317h2v48.889h-2z" transform="translate(110 30)"/><path class="bar current" d="M0 300.317h141.946v48.889H0z" transform="translate(110 30)"/><text class="label" x="15" y="326.762" style="opacity:1" transform="translate(110 30)">current</text><path class="bar maintenance" d="M804.75 370.159H820v48.889h-15.25z" transform="translate(110 30)"/><path class="bar-join maintenance" style="opacity:1" d="M803.75 370.159h2v48.889h-2z" transform="translate(110 30)"/><path class="bar active" d="M384.778 370.159h419.971v48.889H384.778z" transform="translate(110 30)"/><path class="bar-join active" style="opacity:1" d="M383.778 370.159h2v48.889h-2z" transform="translate(110 30)"/><text class="label" x="399.778" y="396.603" style="opacity:1" transform="translate(110 30)">active</text><path class="bar current" d="M163.062 370.159h221.717v48.889H163.062z" transform="translate(110 30)"/><text class="label" x="178.062" y="396.603" style="opacity:1" transform="translate(110 30)">current</text></g></svg>