<svg xmlns="http://www.w3.org/2000/svg" width="960" height="500"><defs><style type="text/css"><![CDATA[ 
.current {
  fill: #5fa04e;
}
.commercial {
  fill: #eb6d27;
}
.active {
  fill: #229ad6;
}
.maintenance {
  fill: #b1bcc2;
}
.unstable {
  fill: #e99c40;
}
.bar-join {
  fill: #ffffff;
}
.bar-join.unstable, .bar-join.current {
  display: none;
}
.tick text {
  font: 16px sans-serif;
  fill: #89a19d;
}
.axis--y .tick text {
  text-anchor: end;
}
.label {
  fill: #fff;
  font: 20px sans-serif;
  font-weight: 100;
  text-anchor: start;
  dominant-baseline: middle;
  text-transform: uppercase;
} ]]></style></defs><g id="bar-container" transform="translate(110, 30)"><g class="axis axis--x" fill="none" font-size="10" font-family="sans-serif" text-anchor="middle"><g class="tick" opacity="1" transform="translate(32.63815789473684,0)"><line stroke="#89a19d" y2="440" x1="0.5" x2="0.5"></line><text fill="#000" y="0" x="0.5" dy="-10">Jul 2024</text></g><g class="tick" opacity="1" transform="translate(131.90131578947367,0)"><line stroke="#89a19d" y2="440" x1="0.5" x2="0.5" stroke-dasharray="2,2"></line><text fill="#000" y="0" x="0.5" dy="-10">Oct 2024</text></g><g class="tick" opacity="1" transform="translate(231.2094298245614,0)"><line stroke="#89a19d" y2="440" x1="0.5" x2="0.5"></line><text fill="#000" y="0" x="0.5" dy="-10">Jan 2025</text></g><g class="tick" opacity="1" transform="translate(328.26973684210526,0)"><line stroke="#89a19d" y2="440" x1="0.5" x2="0.5" stroke-dasharray="2,2"></line><text fill="#000" y="0" x="0.5" dy="-10">Apr 2025</text></g><g class="tick" opacity="1" transform="translate(426.45394736842104,0)"><line stroke="#89a19d" y2="440" x1="0.5" x2="0.5"></line><text fill="#000" y="0" x="0.5" dy="-10">Jul 2025</text></g><g class="tick" opacity="1" transform="translate(525.7171052631579,0)"><line stroke="#89a19d" y2="440" x1="0.5" x2="0.5" stroke-dasharray="2,2"></line><text fill="#000" y="0" x="0.5" dy="-10">Oct 2025</text></g><g class="tick" opacity="1" transform="translate(625.0252192982456,0)"><line stroke="#89a19d" y2="440" x1="0.5" x2="0.5"></line><text fill="#000" y="0" x="0.5" dy="-10">Jan 2026</text></g><g class="tick" opacity="1" transform="translate(722.0855263157895,0)"><line stroke="#89a19d" y2="440" x1="0.5" x2="0.5" stroke-dasharray="2,2"></line><text fill="#000" y="0" x="0.5" dy="-10">Apr 2026</text></g></g><g class="axis axis--y" fill="none" font-size="10" font-family="sans-serif" text-anchor="start"><g class="tick" opacity="1" transform="translate(0,39.17808219178082)"><line stroke="#e1e7e7" x2="820" y1="0.5" y2="0.5"></line><text fill="#000" x="0" y="0.5" dy="0.32em" dx="-10">Main</text></g><g class="tick" opacity="1" transform="translate(0,99.45205479452054)"><line stroke="#e1e7e7" x2="820" y1="0.5" y2="0.5"></line><text fill="#000" x="0" y="0.5" dy="0.32em" dx="-10">Node.js 24</text></g><g class="tick" opacity="1" transform="translate(0,159.72602739726025)"><line stroke="#e1e7e7" x2="820" y1="0.5" y2="0.5"></line><text fill="#000" x="0" y="0.5" dy="0.32em" dx="-10">Node.js 23</text></g><g class="tick" opacity="1" transform="translate(0,220)"><line stroke="#e1e7e7" x2="820" y1="0.5" y2="0.5"></line><text fill="#000" x="0" y="0.5" dy="0.32em" dx="-10">Node.js 22</text></g><g class="tick" opacity="1" transform="translate(0,280.2739726027397)"><line stroke="#e1e7e7" x2="820" y1="0.5" y2="0.5"></line><text fill="#000" x="0" y="0.5" dy="0.32em" dx="-10">Node.js 20</text></g><g class="tick" opacity="1" transform="translate(0,340.54794520547944)"><line stroke="#e1e7e7" x2="820" y1="0.5" y2="0.5"></line><text fill="#000" x="0" y="0.5" dy="0.32em" dx="-10">Node.js 18</text></g><g class="tick" opacity="1" transform="translate(0,400.82191780821915)"><line stroke="#e1e7e7" x2="820" y1="0.5" y2="0.5"></line><text fill="#000" x="0" y="0.5" dy="0.32em" dx="-10">&lt;= v16</text></g><line y1="440" y2="440" x2="820" stroke="#89a19d"></line></g><g><rect class="bar unstable" x="0" y="18.082191780821915" width="820" height="42.1917808219178"></rect><rect class="bar-join unstable" x="-1" y="18.082191780821915" width="2" height="42.1917808219178" style="opacity: 0;"></rect><text class="label" x="15" y="41.17808219178082" style="opacity: 1;">unstable</text></g><g><rect class="bar active" x="554.578947368421" y="78.35616438356163" width="265.42105263157896" height="42.1917808219178"></rect><rect class="bar-join active" x="553.578947368421" y="78.35616438356163" width="2" height="42.1917808219178" style="opacity: 1;"></rect><text class="label" x="569.578947368421" y="101.45205479452054" style="opacity: 1;">active</text></g><g><rect class="bar current" x="350.6578947368421" y="78.35616438356163" width="203.92105263157896" height="42.1917808219178"></rect><rect class="bar-join current" x="349.6578947368421" y="78.35616438356163" width="2" height="42.1917808219178" style="opacity: 0;"></rect><text class="label" x="365.6578947368421" y="101.45205479452054" style="opacity: 1;">current</text></g><g><rect class="bar maintenance" x="328" y="138.63013698630135" width="65.81578947368422" height="42.1917808219178"></rect><rect class="bar-join maintenance" x="327" y="138.63013698630135" width="2" height="42.1917808219178" style="opacity: 1;"></rect><text class="label" x="343" y="161.72602739726025" style="opacity: 0;">maintenance</text></g><g><rect class="bar current" x="146.73684210526315" y="138.63013698630135" width="181.26315789473685" height="42.1917808219178"></rect><rect class="bar-join current" x="145.73684210526315" y="138.63013698630135" width="2" height="42.1917808219178" style="opacity: 0;"></rect><text class="label" x="161.73684210526315" y="161.72602739726025" style="opacity: 1;">current</text></g><g><rect class="bar commercial" x="820" y="198.9041095890411" width="0" height="42.1917808219178"></rect><rect class="bar-join commercial" x="819" y="198.9041095890411" width="2" height="42.1917808219178" style="opacity: 1;"></rect><text class="label" x="835" y="222" style="opacity: 0;">commercial</text></g><g><rect class="bar maintenance" x="547.0263157894738" y="198.9041095890411" width="272.97368421052624" height="42.1917808219178"></rect><rect class="bar-join maintenance" x="546.0263157894738" y="198.9041095890411" width="2" height="42.1917808219178" style="opacity: 1;"></rect><text class="label" x="562.0263157894738" y="222" style="opacity: 1;">maintenance</text></g><g><rect class="bar active" x="161.8421052631579" y="198.9041095890411" width="385.18421052631584" height="42.1917808219178"></rect><rect class="bar-join active" x="160.8421052631579" y="198.9041095890411" width="2" height="42.1917808219178" style="opacity: 1;"></rect><text class="label" x="176.8421052631579" y="222" style="opacity: 1;">active</text></g><g><rect class="bar current" x="0" y="198.9041095890411" width="161.8421052631579" height="42.1917808219178"></rect><rect class="bar-join current" x="-1" y="198.9041095890411" width="2" height="42.1917808219178" style="opacity: 0;"></rect><text class="label" x="15" y="222" style="opacity: 1;">current</text></g><g><rect class="bar commercial" x="753.1052631578947" y="259.17808219178085" width="66.89473684210532" height="42.1917808219178"></rect><rect class="bar-join commercial" x="752.1052631578947" y="259.17808219178085" width="2" height="42.1917808219178" style="opacity: 1;"></rect><text class="label" x="768.1052631578947" y="282.2739726027397" style="opacity: 0;">commercial</text></g><g><rect class="bar maintenance" x="154.28947368421052" y="259.17808219178085" width="598.8157894736842" height="42.1917808219178"></rect><rect class="bar-join maintenance" x="153.28947368421052" y="259.17808219178085" width="2" height="42.1917808219178" style="opacity: 1;"></rect><text class="label" x="169.28947368421052" y="282.2739726027397" style="opacity: 1;">maintenance</text></g><g><rect class="bar active" x="0" y="259.17808219178085" width="154.28947368421052" height="42.1917808219178"></rect><rect class="bar-join active" x="-1" y="259.17808219178085" width="2" height="42.1917808219178" style="opacity: 0;"></rect><text class="label" x="15" y="282.2739726027397" style="opacity: 1;">active</text></g><g><rect class="bar commercial" x="359.2894736842105" y="319.45205479452056" width="460.7105263157895" height="42.1917808219178"></rect><rect class="bar-join commercial" x="358.2894736842105" y="319.45205479452056" width="2" height="42.1917808219178" style="opacity: 1;"></rect><text class="label" x="374.2894736842105" y="342.54794520547944" style="opacity: 1;">commercial</text></g><g><rect class="bar maintenance" x="0" y="319.45205479452056" width="359.2894736842105" height="42.1917808219178"></rect><rect class="bar-join maintenance" x="-1" y="319.45205479452056" width="2" height="42.1917808219178" style="opacity: 0;"></rect><text class="label" x="15" y="342.54794520547944" style="opacity: 1;">maintenance</text></g><g><rect class="bar commercial" x="0" y="379.7260273972603" width="820" height="42.1917808219178"></rect><rect class="bar-join commercial" x="-1" y="379.7260273972603" width="2" height="42.1917808219178" style="opacity: 0;"></rect><text class="label" x="15" y="402.82191780821915" style="opacity: 1;">commercial</text></g></g></svg>