<svg xmlns="http://www.w3.org/2000/svg" width="960" height="500"><defs><style>.current{fill:#2aa748}.active{fill:#47b4ff}.maintenance,.tick text{fill:#89a19d}.unstable{fill:#ffb800}.bar-join,.label{fill:#fff}.bar-join.current{display:none}.tick text{font:16px sans-serif}.axis--y .tick text{text-anchor:end}.label{font:20px sans-serif;font-weight:100;text-anchor:start;dominant-baseline:middle;text-transform:uppercase}</style></defs><g id="bar-container"><g fill="none" class="axis axis--x" font-family="sans-serif" font-size="10" text-anchor="middle"><g class="tick"><path stroke="#89a19d" d="M127.673 30v440"/><text x=".5" fill="#000" dy="-10" transform="translate(127.173 30)">Jul 2024</text></g><g class="tick"><path stroke="#89a19d" stroke-dasharray="2,2" d="M226.936 30v440"/><text x=".5" fill="#000" dy="-10" transform="translate(226.436 30)">Oct 2024</text></g><g class="tick"><path stroke="#89a19d" d="M326.245 30v440"/><text x=".5" fill="#000" dy="-10" transform="translate(325.745 30)">Jan 2025</text></g><g class="tick"><path stroke="#89a19d" stroke-dasharray="2,2" d="M423.305 30v440"/><text x=".5" fill="#000" dy="-10" transform="translate(422.805 30)">Apr 2025</text></g><g class="tick"><path stroke="#89a19d" d="M521.489 30v440"/><text x=".5" fill="#000" dy="-10" transform="translate(520.989 30)">Jul 2025</text></g><g class="tick"><path stroke="#89a19d" stroke-dasharray="2,2" d="M620.752 30v440"/><text x=".5" fill="#000" dy="-10" transform="translate(620.252 30)">Oct 2025</text></g><g class="tick"><path stroke="#89a19d" d="M720.06 30v440"/><text x=".5" fill="#000" dy="-10" transform="translate(719.56 30)">Jan 2026</text></g><g class="tick"><path stroke="#89a19d" stroke-dasharray="2,2" d="M817.12 30v440"/><text x=".5" fill="#000" dy="-10" transform="translate(816.62 30)">Apr 2026</text></g><g class="tick"><path stroke="#89a19d" d="M915.305 30v440"/><text x=".5" fill="#000" dy="-10" transform="translate(914.805 30)">Jul 2026</text></g></g><g fill="none" class="axis axis--y" font-family="sans-serif" font-size="10"><g class="tick"><path stroke="#e1e7e7" d="M110 75.897h820"/><text y=".5" fill="#000" dx="-10" dy=".32em" transform="translate(110 75.397)">Master</text></g><g class="tick"><path stroke="#e1e7e7" d="M110 145.738h820"/><text y=".5" fill="#000" dx="-10" dy=".32em" transform="translate(110 145.238)">Node.js 18</text></g><g class="tick"><path stroke="#e1e7e7" d="M110 215.58h820"/><text y=".5" fill="#000" dx="-10" dy=".32em" transform="translate(110 215.08)">Node.js 20</text></g><g class="tick"><path stroke="#e1e7e7" d="M110 285.42h820"/><text y=".5" fill="#000" dx="-10" dy=".32em" transform="translate(110 284.92)">Node.js 22</text></g><g class="tick"><path stroke="#e1e7e7" d="M110 355.262h820"/><text y=".5" fill="#000" dx="-10" dy=".32em" transform="translate(110 354.762)">Node.js 23</text></g><g class="tick"><path stroke="#e1e7e7" d="M110 425.103h820"/><text y=".5" fill="#000" dx="-10" dy=".32em" transform="translate(110 424.603)">Node.js 24</text></g><path stroke="#89a19d" d="M110 470h820"/></g><path d="M110 50.952h820v48.889H110z" class="bar unstable"/><text x="15" y="47.397" class="label" style="opacity:1" transform="translate(110 30)">unstable</text><path d="M110 120.794h344.184v48.889H110z" class="bar maintenance"/><text x="15" y="117.238" class="label" style="opacity:1" transform="translate(110 30)">maintenance</text><path d="M249.184 190.635H848v48.889H249.184z" class="bar maintenance"/><path d="M138.184 160.635h2v48.889h-2z" class="bar-join maintenance" style="opacity:1" transform="translate(110 30)"/><text x="154.184" y="187.079" class="label" style="opacity:1" transform="translate(110 30)">maintenance</text><path d="M110 190.635h139.184v48.889H110z" class="bar active"/><text x="15" y="187.079" class="label" style="opacity:1" transform="translate(110 30)">active</text><path d="M641.921 260.476H930v48.889H641.921z" class="bar maintenance"/><path d="M530.921 230.476h2v48.889h-2z" class="bar-join maintenance" style="opacity:1" transform="translate(110 30)"/><text x="546.921" y="256.921" class="label" style="opacity:1" transform="translate(110 30)">maintenance</text><path d="M256.737 260.476h385.184v48.889H256.737z" class="bar active"/><path d="M145.737 230.476h2v48.889h-2z" class="bar-join active" style="opacity:1" transform="translate(110 30)"/><text x="161.737" y="256.921" class="label" style="opacity:1" transform="translate(110 30)">active</text><path d="M110 260.476h146.737v48.889H110z" class="bar current"/><text x="15" y="256.921" class="label" style="opacity:1" transform="translate(110 30)">current</text><path d="M422.895 330.317h65.816v48.889h-65.816z" class="bar maintenance"/><path d="M311.895 300.317h2v48.889h-2z" class="bar-join maintenance" style="opacity:1" transform="translate(110 30)"/><path d="M241.632 330.317h181.263v48.889H241.632z" class="bar current"/><text x="146.632" y="326.762" class="label" style="opacity:1" transform="translate(110 30)">current</text><path d="M649.474 400.159H930v48.889H649.474z" class="bar active"/><path d="M538.474 370.159h2v48.889h-2z" class="bar-join active" style="opacity:1" transform="translate(110 30)"/><text x="554.474" y="396.603" class="label" style="opacity:1" transform="translate(110 30)">active</text><path d="M445.553 400.159h203.921v48.889H445.553z" class="bar current"/><text x="350.553" y="396.603" class="label" style="opacity:1" transform="translate(110 30)">current</text></g></svg>