<svg xmlns="http://www.w3.org/2000/svg" width="960" height="500"><defs><style>.current{fill:#2aa748}.active{fill:#47b4ff}.maintenance,.tick text{fill:#89a19d}.unstable{fill:#ffb800}.bar-join,.label{fill:#fff}.bar-join.current{display:none}.tick text{font:16px sans-serif}.axis--y .tick text{text-anchor:end}.label{font:20px sans-serif;font-weight:100;text-anchor:start;dominant-baseline:middle;text-transform:uppercase}</style></defs><g id="bar-container"><g class="axis axis--x" fill="none" font-size="10" font-family="sans-serif" text-anchor="middle"><g class="tick"><path stroke="#89a19d" d="M.5 0v440" transform="translate(149.665 30)"/><text fill="#000" x=".5" dy="-10" transform="translate(149.665 30)">Apr 2021</text></g><g class="tick"><path stroke="#89a19d" stroke-dasharray="2,2" d="M.5 0v440" transform="translate(266.26 30)"/><text fill="#000" x=".5" dy="-10" transform="translate(266.26 30)">Jul 2021</text></g><g class="tick"><path stroke="#89a19d" d="M.5 0v440" transform="translate(384.134 30)"/><text fill="#000" x=".5" dy="-10" transform="translate(384.134 30)">Oct 2021</text></g><g class="tick"><path stroke="#89a19d" stroke-dasharray="2,2" d="M.5 0v440" transform="translate(502.063 30)"/><text fill="#000" x=".5" dy="-10" transform="translate(502.063 30)">Jan 2022</text></g><g class="tick"><path stroke="#89a19d" d="M.5 0v440" transform="translate(617.322 30)"/><text fill="#000" x=".5" dy="-10" transform="translate(617.322 30)">Apr 2022</text></g><g class="tick"><path stroke="#89a19d" stroke-dasharray="2,2" d="M.5 0v440" transform="translate(733.915 30)"/><text fill="#000" x=".5" dy="-10" transform="translate(733.915 30)">Jul 2022</text></g><g class="tick"><path stroke="#89a19d" d="M.5 0v440" transform="translate(851.79 30)"/><text fill="#000" x=".5" dy="-10" transform="translate(851.79 30)">Oct 2022</text></g></g><g class="axis axis--y" fill="none" font-size="10" font-family="sans-serif"><g class="tick"><path stroke="#e1e7e7" d="M0 .5h820" transform="translate(110 64.458)"/><text fill="#000" y=".5" dy=".32em" dx="-10" transform="translate(110 64.458)">Master</text></g><g class="tick"><path stroke="#e1e7e7" d="M0 .5h820" transform="translate(110 117.47)"/><text fill="#000" y=".5" dy=".32em" dx="-10" transform="translate(110 117.47)">Node.js 10</text></g><g class="tick"><path stroke="#e1e7e7" d="M0 .5h820" transform="translate(110 170.482)"/><text fill="#000" y=".5" dy=".32em" dx="-10" transform="translate(110 170.482)">Node.js 12</text></g><g class="tick"><path stroke="#e1e7e7" d="M0 .5h820" transform="translate(110 223.494)"/><text fill="#000" y=".5" dy=".32em" dx="-10" transform="translate(110 223.494)">Node.js 14</text></g><g class="tick"><path stroke="#e1e7e7" d="M0 .5h820" transform="translate(110 276.506)"/><text fill="#000" y=".5" dy=".32em" dx="-10" transform="translate(110 276.506)">Node.js 15</text></g><g class="tick"><path stroke="#e1e7e7" d="M0 .5h820" transform="translate(110 329.518)"/><text fill="#000" y=".5" dy=".32em" dx="-10" transform="translate(110 329.518)">Node.js 16</text></g><g class="tick"><path stroke="#e1e7e7" d="M0 .5h820" transform="translate(110 382.53)"/><text fill="#000" y=".5" dy=".32em" dx="-10" transform="translate(110 382.53)">Node.js 17</text></g><g class="tick"><path stroke="#e1e7e7" d="M0 .5h820" transform="translate(110 435.542)"/><text fill="#000" y=".5" dy=".32em" dx="-10" transform="translate(110 435.542)">Node.js 18</text></g><path stroke="#89a19d" d="M0 440h820" transform="translate(110 30)"/></g><path class="bar unstable" d="M0 15.904h820v37.108H0z" transform="translate(110 30)"/><text class="label" x="15" y="36.458" style="opacity:1" transform="translate(110 30)">unstable</text><path class="bar maintenance" d="M0 68.916h76.875v37.108H0zM0 121.928h544.531v37.108H0z" transform="translate(110 30)"/><text class="label" x="15" y="142.482" style="opacity:1" transform="translate(110 30)">maintenance</text><path class="bar maintenance" d="M297.25 174.94H820v37.108H297.25z" transform="translate(110 30)"/><path class="bar-join maintenance" style="opacity:1" d="M296.25 174.94h2v37.108h-2z" transform="translate(110 30)"/><text class="label" x="312.25" y="195.494" style="opacity:1" transform="translate(110 30)">maintenance</text><path class="bar active" d="M0 174.94h297.25v37.108H0z" transform="translate(110 30)"/><text class="label" x="15" y="195.494" style="opacity:1" transform="translate(110 30)">active</text><path class="bar maintenance" d="M39.719 227.952h78.156v37.108H39.719z" transform="translate(110 30)"/><path class="bar-join maintenance" style="opacity:1" d="M38.719 227.952h2v37.108h-2z" transform="translate(110 30)"/><path class="bar current" d="M0 227.952h39.719v37.108H0z" transform="translate(110 30)"/><path class="bar maintenance" d="M763.625 280.964H820v37.108h-56.375z" transform="translate(110 30)"/><path class="bar-join maintenance" style="opacity:1" d="M762.625 280.964h2v37.108h-2z" transform="translate(110 30)"/><g><path class="bar active" d="M306.219 280.964h457.406v37.108H306.219z" transform="translate(110 30)"/><path class="bar-join active" style="opacity:1" d="M305.219 280.964h2v37.108h-2z" transform="translate(110 30)"/><text class="label" x="321.219" y="301.518" style="opacity:1" transform="translate(110 30)">active</text></g><g><path class="bar current" d="M64.063 280.964h242.156v37.108H64.063z" transform="translate(110 30)"/><text class="label" x="79.063" y="301.518" style="opacity:1" transform="translate(110 30)">current</text></g><g><path class="bar maintenance" d="M507.375 333.976h78.156v37.108h-78.156z" transform="translate(110 30)"/><path class="bar-join maintenance" style="opacity:1" d="M506.375 333.976h2v37.108h-2z" transform="translate(110 30)"/></g><g><path class="bar current" d="M297.25 333.976h210.125v37.108H297.25z" transform="translate(110 30)"/><text class="label" x="312.25" y="354.53" style="opacity:1" transform="translate(110 30)">current</text></g><g><path class="bar active" d="M772.594 386.988H820v37.108h-47.406z" transform="translate(110 30)"/><path class="bar-join active" style="opacity:1" d="M771.594 386.988h2v37.108h-2z" transform="translate(110 30)"/></g><g><path class="bar current" d="M530.438 386.988h242.156v37.108H530.438z" transform="translate(110 30)"/><text class="label" x="545.438" y="407.542" style="opacity:1" transform="translate(110 30)">current</text></g></g></svg>