<svg xmlns="http://www.w3.org/2000/svg" width="960" height="500"><defs><style>.current{fill:#2aa748}.active{fill:#47b4ff}.maintenance,.tick text{fill:#89a19d}.unstable{fill:#ffb800}.bar-join,.label{fill:#fff}.bar-join.current{display:none}.tick text{font:16px sans-serif}.axis--y .tick text{text-anchor:end}.label{font:20px sans-serif;font-weight:100;text-anchor:start;dominant-baseline:middle;text-transform:uppercase}</style></defs><g id="bar-container"><g fill="none" class="axis axis--x" font-family="sans-serif" font-size="10" text-anchor="middle"><g class="tick"><path stroke="#89a19d" d="M134.225 30v440"/><text x=".5" fill="#000" dy="-10" transform="translate(133.725 30)">Oct 2023</text></g><g class="tick"><path stroke="#89a19d" stroke-dasharray="2,2" d="M207.217 30v440"/><text x=".5" fill="#000" dy="-10" transform="translate(206.717 30)">Jan 2024</text></g><g class="tick"><path stroke="#89a19d" d="M279.35 30v440"/><text x=".5" fill="#000" dy="-10" transform="translate(278.85 30)">Apr 2024</text></g><g class="tick"><path stroke="#89a19d" stroke-dasharray="2,2" d="M351.517 30v440"/><text x=".5" fill="#000" dy="-10" transform="translate(351.017 30)">Jul 2024</text></g><g class="tick"><path stroke="#89a19d" d="M424.476 30v440"/><text x=".5" fill="#000" dy="-10" transform="translate(423.976 30)">Oct 2024</text></g><g class="tick"><path stroke="#89a19d" stroke-dasharray="2,2" d="M497.469 30v440"/><text x=".5" fill="#000" dy="-10" transform="translate(496.969 30)">Jan 2025</text></g><g class="tick"><path stroke="#89a19d" d="M568.81 30v440"/><text x=".5" fill="#000" dy="-10" transform="translate(568.31 30)">Apr 2025</text></g><g class="tick"><path stroke="#89a19d" stroke-dasharray="2,2" d="M640.975 30v440"/><text x=".5" fill="#000" dy="-10" transform="translate(640.475 30)">Jul 2025</text></g><g class="tick"><path stroke="#89a19d" d="M713.935 30v440"/><text x=".5" fill="#000" dy="-10" transform="translate(713.435 30)">Oct 2025</text></g><g class="tick"><path stroke="#89a19d" stroke-dasharray="2,2" d="M786.927 30v440"/><text x=".5" fill="#000" dy="-10" transform="translate(786.427 30)">Jan 2026</text></g><g class="tick"><path stroke="#89a19d" d="M858.268 30v440"/><text x=".5" fill="#000" dy="-10" transform="translate(857.768 30)">Apr 2026</text></g><g class="tick"><path stroke="#89a19d" stroke-dasharray="2,2" d="M930.434 30v440"/><text x=".5" fill="#000" dy="-10" transform="translate(929.934 30)">Jul 2026</text></g></g><g fill="none" class="axis axis--y" font-family="sans-serif" font-size="10"><g class="tick"><path stroke="#e1e7e7" d="M110 64.958h820"/><text y=".5" fill="#000" dx="-10" dy=".32em" transform="translate(110 64.458)">Main</text></g><g class="tick"><path stroke="#e1e7e7" d="M110 117.97h820"/><text y=".5" fill="#000" dx="-10" dy=".32em" transform="translate(110 117.47)">Node.js 16</text></g><g class="tick"><path stroke="#e1e7e7" d="M110 170.982h820"/><text y=".5" fill="#000" dx="-10" dy=".32em" transform="translate(110 170.482)">Node.js 18</text></g><g class="tick"><path stroke="#e1e7e7" d="M110 223.994h820"/><text y=".5" fill="#000" dx="-10" dy=".32em" transform="translate(110 223.494)">Node.js 20</text></g><g class="tick"><path stroke="#e1e7e7" d="M110 277.006h820"/><text y=".5" fill="#000" dx="-10" dy=".32em" transform="translate(110 276.506)">Node.js 21</text></g><g class="tick"><path stroke="#e1e7e7" d="M110 330.018h820"/><text y=".5" fill="#000" dx="-10" dy=".32em" transform="translate(110 329.518)">Node.js 22</text></g><g class="tick"><path stroke="#e1e7e7" d="M110 383.03h820"/><text y=".5" fill="#000" dx="-10" dy=".32em" transform="translate(110 382.53)">Node.js 23</text></g><g class="tick"><path stroke="#e1e7e7" d="M110 436.042h820"/><text y=".5" fill="#000" dx="-10" dy=".32em" transform="translate(110 435.542)">Node.js 24</text></g><path stroke="#89a19d" d="M110 470h820"/></g><path d="M110 45.904h820v37.108H110z" class="bar unstable"/><text x="15" y="36.458" class="label" style="opacity:1" transform="translate(110 30)">unstable</text><path d="M110 98.916h7.93v37.108H110zM147.273 151.928h444.101v37.108H147.273z" class="bar maintenance"/><path d="M36.273 121.928h2v37.108h-2z" class="bar-join maintenance" style="opacity:1" transform="translate(110 30)"/><text x="52.273" y="142.482" class="label" style="opacity:1" transform="translate(110 30)">maintenance</text><path d="M110 151.928h37.273v37.108H110z" class="bar active"/><path d="M440.696 204.94h440.135v37.108H440.696z" class="bar maintenance"/><path d="M329.696 174.94h2v37.108h-2z" class="bar-join maintenance" style="opacity:1" transform="translate(110 30)"/><text x="345.696" y="195.494" class="label" style="opacity:1" transform="translate(110 30)">maintenance</text><path d="M152.031 204.94h288.665v37.108H152.031z" class="bar active"/><path d="M41.031 174.94h2v37.108h-2z" class="bar-join active" style="opacity:1" transform="translate(110 30)"/><text x="57.031" y="195.494" class="label" style="opacity:1" transform="translate(110 30)">active</text><path d="M110 204.94h42.031v37.108H110z" class="bar current"/><path d="M278.917 257.952h48.375v37.108h-48.375z" class="bar maintenance"/><path d="M167.917 227.952h2v37.108h-2z" class="bar-join maintenance" style="opacity:1" transform="translate(110 30)"/><path d="M146.48 257.952h132.437v37.108H146.48z" class="bar current"/><text x="51.48" y="248.506" class="label" style="opacity:1" transform="translate(110 30)">current</text><path d="M729.362 310.964H930v37.108H729.362z" class="bar maintenance"/><path d="M618.362 280.964h2v37.108h-2z" class="bar-join maintenance" style="opacity:1" transform="translate(110 30)"/><text x="634.362" y="301.518" class="label" style="opacity:1" transform="translate(110 30)">maintenance</text><path d="M446.248 310.964h283.114v37.108H446.248z" class="bar active"/><path d="M335.248 280.964h2v37.108h-2z" class="bar-join active" style="opacity:1" transform="translate(110 30)"/><text x="351.248" y="301.518" class="label" style="opacity:1" transform="translate(110 30)">active</text><path d="M296.364 310.964h149.884v37.108H296.364z" class="bar current"/><text x="201.364" y="301.518" class="label" style="opacity:1" transform="translate(110 30)">current</text><path d="M568.375 363.976h48.375v37.108h-48.375z" class="bar maintenance"/><path d="M457.375 333.976h2v37.108h-2z" class="bar-join maintenance" style="opacity:1" transform="translate(110 30)"/><path d="M435.145 363.976h133.23v37.108h-133.23z" class="bar current"/><text x="340.145" y="354.53" class="label" style="opacity:1" transform="translate(110 30)">current</text><path d="M734.913 416.988H930v37.108H734.913z" class="bar active"/><path d="M623.913 386.988h2v37.108h-2z" class="bar-join active" style="opacity:1" transform="translate(110 30)"/><text x="639.913" y="407.542" class="label" style="opacity:1" transform="translate(110 30)">active</text><path d="M585.029 416.988h149.884v37.108H585.029z" class="bar current"/><text x="490.029" y="407.542" class="label" style="opacity:1" transform="translate(110 30)">current</text></g></svg>
