<svg xmlns="http://www.w3.org/2000/svg" width="960" height="500"><defs><style>.current{fill:#2aa748}.active{fill:#47b4ff}.maintenance,.tick text{fill:#89a19d}.unstable{fill:#ffb800}.bar-join,.label{fill:#fff}.bar-join.current{display:none}.tick text{font:16px sans-serif}.axis--y .tick text{text-anchor:end}.label{font:20px sans-serif;font-weight:100;text-anchor:start;dominant-baseline:middle;text-transform:uppercase}</style></defs><g id="bar-container"><g class="axis axis--x" fill="none" font-size="10" font-family="sans-serif" text-anchor="middle"><g class="tick"><path stroke="#89a19d" d="M.5 0v440" transform="translate(132.414 30)"/><text fill="#000" x=".5" dy="-10" transform="translate(132.414 30)">Jul 2022</text></g><g class="tick"><path stroke="#89a19d" stroke-dasharray="2,2" d="M.5 0v440" transform="translate(201.246 30)"/><text fill="#000" x=".5" dy="-10" transform="translate(201.246 30)">Oct 2022</text></g><g class="tick"><path stroke="#89a19d" d="M.5 0v440" transform="translate(270.11 30)"/><text fill="#000" x=".5" dy="-10" transform="translate(270.11 30)">Jan 2023</text></g><g class="tick"><path stroke="#89a19d" stroke-dasharray="2,2" d="M.5 0v440" transform="translate(337.414 30)"/><text fill="#000" x=".5" dy="-10" transform="translate(337.414 30)">Apr 2023</text></g><g class="tick"><path stroke="#89a19d" d="M.5 0v440" transform="translate(405.498 30)"/><text fill="#000" x=".5" dy="-10" transform="translate(405.498 30)">Jul 2023</text></g><g class="tick"><path stroke="#89a19d" stroke-dasharray="2,2" d="M.5 0v440" transform="translate(474.33 30)"/><text fill="#000" x=".5" dy="-10" transform="translate(474.33 30)">Oct 2023</text></g><g class="tick"><path stroke="#89a19d" d="M.5 0v440" transform="translate(543.193 30)"/><text fill="#000" x=".5" dy="-10" transform="translate(543.193 30)">Jan 2024</text></g><g class="tick"><path stroke="#89a19d" stroke-dasharray="2,2" d="M.5 0v440" transform="translate(611.246 30)"/><text fill="#000" x=".5" dy="-10" transform="translate(611.246 30)">Apr 2024</text></g><g class="tick"><path stroke="#89a19d" d="M.5 0v440" transform="translate(679.33 30)"/><text fill="#000" x=".5" dy="-10" transform="translate(679.33 30)">Jul 2024</text></g><g class="tick"><path stroke="#89a19d" stroke-dasharray="2,2" d="M.5 0v440" transform="translate(748.162 30)"/><text fill="#000" x=".5" dy="-10" transform="translate(748.162 30)">Oct 2024</text></g><g class="tick"><path stroke="#89a19d" d="M.5 0v440" transform="translate(817.026 30)"/><text fill="#000" x=".5" dy="-10" transform="translate(817.026 30)">Jan 2025</text></g><g class="tick"><path stroke="#89a19d" stroke-dasharray="2,2" d="M.5 0v440" transform="translate(884.33 30)"/><text fill="#000" x=".5" dy="-10" transform="translate(884.33 30)">Apr 2025</text></g></g><g class="axis axis--y" fill="none" font-size="10" font-family="sans-serif"><g class="tick"><path stroke="#e1e7e7" d="M0 .5h820" transform="translate(110 75.397)"/><text fill="#000" y=".5" dy=".32em" dx="-10" transform="translate(110 75.397)">Master</text></g><g class="tick"><path stroke="#e1e7e7" d="M0 .5h820" transform="translate(110 145.238)"/><text fill="#000" y=".5" dy=".32em" dx="-10" transform="translate(110 145.238)">Node.js 14</text></g><g class="tick"><path stroke="#e1e7e7" d="M0 .5h820" transform="translate(110 215.08)"/><text fill="#000" y=".5" dy=".32em" dx="-10" transform="translate(110 215.08)">Node.js 16</text></g><g class="tick"><path stroke="#e1e7e7" d="M0 .5h820" transform="translate(110 284.92)"/><text fill="#000" y=".5" dy=".32em" dx="-10" transform="translate(110 284.92)">Node.js 18</text></g><g class="tick"><path stroke="#e1e7e7" d="M0 .5h820" transform="translate(110 354.762)"/><text fill="#000" y=".5" dy=".32em" dx="-10" transform="translate(110 354.762)">Node.js 19</text></g><g class="tick"><path stroke="#e1e7e7" d="M0 .5h820" transform="translate(110 424.603)"/><text fill="#000" y=".5" dy=".32em" dx="-10" transform="translate(110 424.603)">Node.js 20</text></g><path stroke="#89a19d" d="M0 440h820" transform="translate(110 30)"/></g><path class="bar unstable" d="M0 20.952h820v48.889H0z" transform="translate(110 30)"/><text class="label" x="15" y="47.397" style="opacity:1" transform="translate(110 30)">unstable</text><path class="bar maintenance" d="M0 90.794h249.142v48.889H0z" transform="translate(110 30)"/><text class="label" x="15" y="117.238" style="opacity:1" transform="translate(110 30)">maintenance</text><path class="bar maintenance" d="M103.996 160.635h245.401v48.889H103.996z" transform="translate(110 30)"/><path class="bar-join maintenance" style="opacity:1" d="M102.996 160.635h2v48.889h-2z" transform="translate(110 30)"/><text class="label" x="118.996" y="187.079" style="opacity:1" transform="translate(110 30)">maintenance</text><path class="bar active" d="M0 160.635h103.996v48.889H0z" transform="translate(110 30)"/><text class="label" x="15" y="187.079" style="opacity:1" transform="translate(110 30)">active</text><path class="bar maintenance" d="M377.08 230.476h418.978v48.889H377.08z" transform="translate(110 30)"/><path class="bar-join maintenance" style="opacity:1" d="M376.08 230.476h2v48.889h-2z" transform="translate(110 30)"/><text class="label" x="392.08" y="256.921" style="opacity:1" transform="translate(110 30)">maintenance</text><path class="bar active" d="M109.234 230.476h267.847v48.889H109.234z" transform="translate(110 30)"/><path class="bar-join active" style="opacity:1" d="M108.234 230.476h2v48.889h-2z" transform="translate(110 30)"/><text class="label" x="124.234" y="256.921" style="opacity:1" transform="translate(110 30)">active</text><path class="bar current" d="M0 230.476h109.234v48.889H0z" transform="translate(110 30)"/><text class="label" x="15" y="256.921" style="opacity:1" transform="translate(110 30)">current</text><path class="bar maintenance" d="M227.445 300.317h45.639v48.889h-45.639z" transform="translate(110 30)"/><path class="bar-join maintenance" style="opacity:1" d="M226.445 300.317h2v48.889h-2z" transform="translate(110 30)"/><path class="bar current" d="M103.996 300.317h123.449v48.889H103.996z" transform="translate(110 30)"/><text class="label" x="118.996" y="326.762" style="opacity:1" transform="translate(110 30)">current</text><path class="bar maintenance" d="M653.905 370.159H820v48.889H653.905z" transform="translate(110 30)"/><path class="bar-join maintenance" style="opacity:1" d="M652.905 370.159h2v48.889h-2z" transform="translate(110 30)"/><text class="label" x="668.905" y="396.603" style="opacity:1" transform="translate(110 30)">maintenance</text><path class="bar active" d="M381.569 370.159h272.336v48.889H381.569z" transform="translate(110 30)"/><path class="bar-join active" style="opacity:1" d="M380.569 370.159h2v48.889h-2z" transform="translate(110 30)"/><text class="label" x="396.569" y="396.603" style="opacity:1" transform="translate(110 30)">active</text><path class="bar current" d="M240.164 370.159h141.405v48.889H240.164z" transform="translate(110 30)"/><text class="label" x="255.164" y="396.603" style="opacity:1" transform="translate(110 30)">current</text></g></svg>