<svg xmlns="http://www.w3.org/2000/svg" width="960" height="500"><defs><style>.current{fill:#2aa748}.active{fill:#47b4ff}.maintenance,.tick text{fill:#89a19d}.bar-join,.label{fill:#fff}.bar-join.current{display:none}.tick text{font:16px sans-serif}.axis--y .tick text{text-anchor:end}.label{font:20px sans-serif;font-weight:100;text-anchor:start;dominant-baseline:middle;text-transform:uppercase}</style></defs><g id="bar-container"><g class="axis axis--x" fill="none" font-size="10" font-family="sans-serif" text-anchor="middle"><g class="tick"><path stroke="#89a19d" d="M.5 0v440" transform="translate(138.872 30)"/><text fill="#000" x=".5" dy="-10" transform="translate(138.872 30)">Oct 2020</text></g><g class="tick"><path stroke="#89a19d" stroke-dasharray="2,2" d="M.5 0v440" transform="translate(227.452 30)"/><text fill="#000" x=".5" dy="-10" transform="translate(227.452 30)">Jan 2021</text></g><g class="tick"><path stroke="#89a19d" d="M.5 0v440" transform="translate(314.028 30)"/><text fill="#000" x=".5" dy="-10" transform="translate(314.028 30)">Apr 2021</text></g><g class="tick"><path stroke="#89a19d" stroke-dasharray="2,2" d="M.5 0v440" transform="translate(401.605 30)"/><text fill="#000" x=".5" dy="-10" transform="translate(401.605 30)">Jul 2021</text></g><g class="tick"><path stroke="#89a19d" d="M.5 0v440" transform="translate(490.146 30)"/><text fill="#000" x=".5" dy="-10" transform="translate(490.146 30)">Oct 2021</text></g><g class="tick"><path stroke="#89a19d" stroke-dasharray="2,2" d="M.5 0v440" transform="translate(578.726 30)"/><text fill="#000" x=".5" dy="-10" transform="translate(578.726 30)">Jan 2022</text></g><g class="tick"><path stroke="#89a19d" d="M.5 0v440" transform="translate(665.301 30)"/><text fill="#000" x=".5" dy="-10" transform="translate(665.301 30)">Apr 2022</text></g><g class="tick"><path stroke="#89a19d" stroke-dasharray="2,2" d="M.5 0v440" transform="translate(752.88 30)"/><text fill="#000" x=".5" dy="-10" transform="translate(752.88 30)">Jul 2022</text></g><g class="tick"><path stroke="#89a19d" d="M.5 0v440" transform="translate(841.42 30)"/><text fill="#000" x=".5" dy="-10" transform="translate(841.42 30)">Oct 2022</text></g><g class="tick"><path stroke="#89a19d" stroke-dasharray="2,2" d="M.5 0v440" transform="translate(930 30)"/><text fill="#000" x=".5" dy="-10" transform="translate(930 30)">Jan 2023</text></g></g><g class="axis axis--y" fill="none" font-size="10" font-family="sans-serif"><g class="tick"><path stroke="#e1e7e7" d="M0 .5h820" transform="translate(110 75.397)"/><text fill="#000" y=".5" dy=".32em" dx="-10" transform="translate(110 75.397)">Master</text></g><g class="tick"><path stroke="#e1e7e7" d="M0 .5h820" transform="translate(110 145.238)"/><text fill="#000" y=".5" dy=".32em" dx="-10" transform="translate(110 145.238)">Node.js 10</text></g><g class="tick"><path stroke="#e1e7e7" d="M0 .5h820" transform="translate(110 215.08)"/><text fill="#000" y=".5" dy=".32em" dx="-10" transform="translate(110 215.08)">Node.js 12</text></g><g class="tick"><path stroke="#e1e7e7" d="M0 .5h820" transform="translate(110 284.92)"/><text fill="#000" y=".5" dy=".32em" dx="-10" transform="translate(110 284.92)">Node.js 14</text></g><g class="tick"><path stroke="#e1e7e7" d="M0 .5h820" transform="translate(110 354.762)"/><text fill="#000" y=".5" dy=".32em" dx="-10" transform="translate(110 354.762)">Node.js 15</text></g><g class="tick"><path stroke="#e1e7e7" d="M0 .5h820" transform="translate(110 424.603)"/><text fill="#000" y=".5" dy=".32em" dx="-10" transform="translate(110 424.603)">Node.js 16</text></g><path stroke="#89a19d" d="M0 440h820" transform="translate(110 30)"/></g><path class="bar" d="M0 20.952h820v48.889H0z" transform="translate(110 30)" fill="#ffb800"/><text class="label" x="15" y="47.397" transform="translate(110 30)">unstable</text><path class="bar maintenance" d="M0 90.794h231.977v48.889H0z" transform="translate(110 30)"/><text class="label" x="15" y="117.238" transform="translate(110 30)">maintenance</text><path class="bar maintenance" d="M86.656 160.635h496.595v48.889H86.656z" transform="translate(110 30)"/><path class="bar-join maintenance" d="M85.656 160.635h2v48.889h-2z" transform="translate(110 30)"/><text class="label" x="101.656" y="187.079" transform="translate(110 30)">maintenance</text><path class="bar active" d="M0 160.635h86.656v48.889H0z" transform="translate(110 30)"/><text class="label" x="15" y="187.079" transform="translate(110 30)">active</text><path class="bar maintenance" d="M397.509 230.476H820v48.889H397.509z" transform="translate(110 30)"/><path class="bar-join maintenance" d="M396.509 230.476h2v48.889h-2z" transform="translate(110 30)"/><text class="label" x="412.509" y="256.921" transform="translate(110 30)">maintenance</text><path class="bar active" d="M53.934 230.476h343.575v48.889H53.934z" transform="translate(110 30)"/><path class="bar-join active" d="M52.934 230.476h2v48.889h-2z" transform="translate(110 30)"/><text class="label" x="68.934" y="256.921" transform="translate(110 30)">active</text><path class="bar current" d="M0 230.476h53.934v48.889H0z" transform="translate(110 30)"/><path class="bar maintenance" d="M204.068 300.317h58.706v48.889h-58.706z" transform="translate(110 30)"/><path class="bar-join maintenance" d="M203.068 300.317h2v48.889h-2z" transform="translate(110 30)"/><path class="bar current" d="M47.197 300.317h156.87v48.889H47.197z" transform="translate(110 30)"/><text class="label" x="62.197" y="326.762" transform="translate(110 30)">current</text><path class="bar maintenance" d="M747.82 370.159H820v48.889h-72.18z" transform="translate(110 30)"/><path class="bar-join maintenance" d="M746.82 370.159h2v48.889h-2z" transform="translate(110 30)"/><path class="bar active" d="M404.246 370.159h343.575v48.889H404.246z" transform="translate(110 30)"/><path class="bar-join active" d="M403.246 370.159h2v48.889h-2z" transform="translate(110 30)"/><text class="label" x="419.246" y="396.603" transform="translate(110 30)">active</text><path class="bar current" d="M222.353 370.159h181.893v48.889H222.353z" transform="translate(110 30)"/><text class="label" x="237.353" y="396.603" transform="translate(110 30)">current</text></g></svg>