<svg xmlns="http://www.w3.org/2000/svg" width="960" height="500"><defs><style>.current{fill:#2aa748}.active{fill:#47b4ff}.maintenance,.tick text{fill:#89a19d}.unstable{fill:#ffb800}.bar-join,.label{fill:#fff}.bar-join.current{display:none}.tick text{font:16px sans-serif}.axis--y .tick text{text-anchor:end}.label{font:20px sans-serif;font-weight:100;text-anchor:start;dominant-baseline:middle;text-transform:uppercase}</style></defs><g id="bar-container"><g class="axis axis--x" fill="none" font-size="10" font-family="sans-serif" text-anchor="middle"><g class="tick"><path stroke="#89a19d" d="M.5 0v440" transform="translate(164.724 30)"/><text fill="#000" x=".5" dy="-10" transform="translate(164.724 30)">Jul 2019</text></g><g class="tick"><path stroke="#89a19d" stroke-dasharray="2,2" d="M.5 0v440" transform="translate(247.259 30)"/><text fill="#000" x=".5" dy="-10" transform="translate(247.259 30)">Oct 2019</text></g><g class="tick"><path stroke="#89a19d" d="M.5 0v440" transform="translate(329.83 30)"/><text fill="#000" x=".5" dy="-10" transform="translate(329.83 30)">Jan 2020</text></g><g class="tick"><path stroke="#89a19d" stroke-dasharray="2,2" d="M.5 0v440" transform="translate(411.43 30)"/><text fill="#000" x=".5" dy="-10" transform="translate(411.43 30)">Apr 2020</text></g><g class="tick"><path stroke="#89a19d" d="M.5 0v440" transform="translate(493.068 30)"/><text fill="#000" x=".5" dy="-10" transform="translate(493.068 30)">Jul 2020</text></g><g class="tick"><path stroke="#89a19d" stroke-dasharray="2,2" d="M.5 0v440" transform="translate(575.602 30)"/><text fill="#000" x=".5" dy="-10" transform="translate(575.602 30)">Oct 2020</text></g><g class="tick"><path stroke="#89a19d" d="M.5 0v440" transform="translate(658.174 30)"/><text fill="#000" x=".5" dy="-10" transform="translate(658.174 30)">Jan 2021</text></g><g class="tick"><path stroke="#89a19d" stroke-dasharray="2,2" d="M.5 0v440" transform="translate(738.877 30)"/><text fill="#000" x=".5" dy="-10" transform="translate(738.877 30)">Apr 2021</text></g><g class="tick"><path stroke="#89a19d" d="M.5 0v440" transform="translate(820.515 30)"/><text fill="#000" x=".5" dy="-10" transform="translate(820.515 30)">Jul 2021</text></g><g class="tick"><path stroke="#89a19d" stroke-dasharray="2,2" d="M.5 0v440" transform="translate(903.05 30)"/><text fill="#000" x=".5" dy="-10" transform="translate(903.05 30)">Oct 2021</text></g></g><g class="axis axis--y" fill="none" font-size="10" font-family="sans-serif"><g class="tick"><path stroke="#e1e7e7" d="M0 .5h820" transform="translate(110 69.178)"/><text fill="#000" y=".5" dy=".32em" dx="-10" transform="translate(110 69.178)">Master</text></g><g class="tick"><path stroke="#e1e7e7" d="M0 .5h820" transform="translate(110 129.452)"/><text fill="#000" y=".5" dy=".32em" dx="-10" transform="translate(110 129.452)">Node.js 8</text></g><g class="tick"><path stroke="#e1e7e7" d="M0 .5h820" transform="translate(110 189.726)"/><text fill="#000" y=".5" dy=".32em" dx="-10" transform="translate(110 189.726)">Node.js 10</text></g><g class="tick"><path stroke="#e1e7e7" d="M0 .5h820" transform="translate(110 250)"/><text fill="#000" y=".5" dy=".32em" dx="-10" transform="translate(110 250)">Node.js 11</text></g><g class="tick"><path stroke="#e1e7e7" d="M0 .5h820" transform="translate(110 310.274)"/><text fill="#000" y=".5" dy=".32em" dx="-10" transform="translate(110 310.274)">Node.js 12</text></g><g class="tick"><path stroke="#e1e7e7" d="M0 .5h820" transform="translate(110 370.548)"/><text fill="#000" y=".5" dy=".32em" dx="-10" transform="translate(110 370.548)">Node.js 13</text></g><g class="tick"><path stroke="#e1e7e7" d="M0 .5h820" transform="translate(110 430.822)"/><text fill="#000" y=".5" dy=".32em" dx="-10" transform="translate(110 430.822)">Node.js 14</text></g><path stroke="#89a19d" d="M0 440h820" transform="translate(110 30)"/></g><path class="bar unstable" d="M0 18.082h820v42.192H0z" transform="translate(110 30)"/><text class="label" x="15" y="41.178" transform="translate(110 30)">unstable</text><path class="bar maintenance" d="M0 78.356h218.933v42.192H0z" transform="translate(110 30)"/><text class="label" x="15" y="101.452" transform="translate(110 30)">maintenance</text><path class="bar maintenance" d="M301.468 138.63h353.463v42.192H301.468z" transform="translate(110 30)"/><path class="bar-join maintenance" d="M300.468 138.63h2v42.192h-2z" transform="translate(110 30)"/><text class="label" x="316.468" y="161.726" transform="translate(110 30)">maintenance</text><path class="bar active" d="M0 138.63h301.468v42.192H0z" transform="translate(110 30)"/><text class="label" x="15" y="161.726" transform="translate(110 30)">active</text><path class="bar maintenance" d="M0 198.904h27.848v42.192H0zM483.582 259.178H820v42.192H483.582z" transform="translate(110 30)"/><path class="bar-join maintenance" d="M482.582 259.178h2v42.192h-2z" transform="translate(110 30)"/><text class="label" x="498.582" y="282.274" transform="translate(110 30)">maintenance</text><g><path class="bar active" d="M155.238 259.178h328.344v42.192H155.238z" transform="translate(110 30)"/><path class="bar-join active" d="M154.238 259.178h2v42.192h-2z" transform="translate(110 30)"/><text class="label" x="170.238" y="282.274" transform="translate(110 30)">active</text></g><g><path class="bar current" d="M0 259.178h155.238v42.192H0z" transform="translate(110 30)"/><text class="label" x="15" y="282.274" transform="translate(110 30)">current</text></g><g><path class="bar maintenance" d="M301.468 319.452h54.724v42.192h-54.724z" transform="translate(110 30)"/><path class="bar-join maintenance" d="M300.468 319.452h2v42.192h-2z" transform="translate(110 30)"/></g><g><path class="bar current" d="M156.135 319.452h145.333v42.192H156.135z" transform="translate(110 30)"/><text class="label" x="171.135" y="342.548" transform="translate(110 30)">current</text></g><g><path class="bar maintenance" d="M810.132 379.726H820v42.192h-9.868z" transform="translate(110 30)"/><path class="bar-join maintenance" d="M809.132 379.726h2v42.192h-2z" transform="translate(110 30)"/></g><g><path class="bar active" d="M482.685 379.726h327.447v42.192H482.685z" transform="translate(110 30)"/><path class="bar-join active" d="M481.685 379.726h2v42.192h-2z" transform="translate(110 30)"/><text class="label" x="497.685" y="402.822" transform="translate(110 30)">active</text></g><g><path class="bar current" d="M319.41 379.726h163.275v42.192H319.41z" transform="translate(110 30)"/><text class="label" x="334.41" y="402.822" transform="translate(110 30)">current</text></g></g></svg>