<svg xmlns="http://www.w3.org/2000/svg" width="960" height="500"><defs><style>.current{fill:#2aa748}.active{fill:#47b4ff}.maintenance,.tick text{fill:#89a19d}.unstable{fill:#ffb800}.bar-join,.label{fill:#fff}.bar-join.current{display:none}.tick text{font:16px sans-serif}.axis--y .tick text{text-anchor:end}.label{font:20px sans-serif;font-weight:100;text-anchor:start;dominant-baseline:middle;text-transform:uppercase}</style></defs><g id="bar-container"><g class="axis axis--x" fill="none" font-size="10" font-family="sans-serif" text-anchor="middle"><g class="tick"><path stroke="#89a19d" d="M.5 0v440" transform="translate(166.813 30)"/><text fill="#000" x=".5" dy="-10" transform="translate(166.813 30)">Apr 2019</text></g><g class="tick"><path stroke="#89a19d" stroke-dasharray="2,2" d="M.5 0v440" transform="translate(254.503 30)"/><text fill="#000" x=".5" dy="-10" transform="translate(254.503 30)">Jul 2019</text></g><g class="tick"><path stroke="#89a19d" d="M.5 0v440" transform="translate(343.156 30)"/><text fill="#000" x=".5" dy="-10" transform="translate(343.156 30)">Oct 2019</text></g><g class="tick"><path stroke="#89a19d" stroke-dasharray="2,2" d="M.5 0v440" transform="translate(431.849 30)"/><text fill="#000" x=".5" dy="-10" transform="translate(431.849 30)">Jan 2020</text></g><g class="tick"><path stroke="#89a19d" d="M.5 0v440" transform="translate(519.498 30)"/><text fill="#000" x=".5" dy="-10" transform="translate(519.498 30)">Apr 2020</text></g><g class="tick"><path stroke="#89a19d" stroke-dasharray="2,2" d="M.5 0v440" transform="translate(607.187 30)"/><text fill="#000" x=".5" dy="-10" transform="translate(607.187 30)">Jul 2020</text></g><g class="tick"><path stroke="#89a19d" d="M.5 0v440" transform="translate(695.84 30)"/><text fill="#000" x=".5" dy="-10" transform="translate(695.84 30)">Oct 2020</text></g><g class="tick"><path stroke="#89a19d" stroke-dasharray="2,2" d="M.5 0v440" transform="translate(784.534 30)"/><text fill="#000" x=".5" dy="-10" transform="translate(784.534 30)">Jan 2021</text></g><g class="tick"><path stroke="#89a19d" d="M.5 0v440" transform="translate(871.22 30)"/><text fill="#000" x=".5" dy="-10" transform="translate(871.22 30)">Apr 2021</text></g></g><g class="axis axis--y" fill="none" font-size="10" font-family="sans-serif"><g class="tick"><path stroke="#e1e7e7" d="M0 .5h820" transform="translate(110 64.458)"/><text fill="#000" y=".5" dy=".32em" dx="-10" transform="translate(110 64.458)">Master</text></g><g class="tick"><path stroke="#e1e7e7" d="M0 .5h820" transform="translate(110 117.47)"/><text fill="#000" y=".5" dy=".32em" dx="-10" transform="translate(110 117.47)">Node.js 6</text></g><g class="tick"><path stroke="#e1e7e7" d="M0 .5h820" transform="translate(110 170.482)"/><text fill="#000" y=".5" dy=".32em" dx="-10" transform="translate(110 170.482)">Node.js 8</text></g><g class="tick"><path stroke="#e1e7e7" d="M0 .5h820" transform="translate(110 223.494)"/><text fill="#000" y=".5" dy=".32em" dx="-10" transform="translate(110 223.494)">Node.js 10</text></g><g class="tick"><path stroke="#e1e7e7" d="M0 .5h820" transform="translate(110 276.506)"/><text fill="#000" y=".5" dy=".32em" dx="-10" transform="translate(110 276.506)">Node.js 11</text></g><g class="tick"><path stroke="#e1e7e7" d="M0 .5h820" transform="translate(110 329.518)"/><text fill="#000" y=".5" dy=".32em" dx="-10" transform="translate(110 329.518)">Node.js 12</text></g><g class="tick"><path stroke="#e1e7e7" d="M0 .5h820" transform="translate(110 382.53)"/><text fill="#000" y=".5" dy=".32em" dx="-10" transform="translate(110 382.53)">Node.js 13</text></g><g class="tick"><path stroke="#e1e7e7" d="M0 .5h820" transform="translate(110 435.542)"/><text fill="#000" y=".5" dy=".32em" dx="-10" transform="translate(110 435.542)">Node.js 14</text></g><path stroke="#89a19d" d="M0 440h820" transform="translate(110 30)"/></g><path class="bar unstable" d="M0 15.904h820v37.108H0z" transform="translate(110 30)"/><text class="label" x="15" y="36.458" transform="translate(110 30)">unstable</text><path class="bar maintenance" d="M0 68.916h84.799v37.108H0zM0 121.928h320.885v37.108H0z" transform="translate(110 30)"/><text class="label" x="15" y="142.482" transform="translate(110 30)">maintenance</text><path class="bar maintenance" d="M409.538 174.94h351.721v37.108H409.538z" transform="translate(110 30)"/><path class="bar-join maintenance" d="M408.538 174.94h2v37.108h-2z" transform="translate(110 30)"/><text class="label" x="424.538" y="195.494" transform="translate(110 30)">maintenance</text><path class="bar active" d="M0 174.94h409.538v37.108H0z" transform="translate(110 30)"/><text class="label" x="15" y="195.494" transform="translate(110 30)">active</text><path class="bar maintenance" d="M77.09 227.952h38.545v37.108H77.09z" transform="translate(110 30)"/><path class="bar-join maintenance" d="M76.09 227.952h2v37.108h-2z" transform="translate(110 30)"/><path class="bar current" d="M0 227.952h77.09v37.108H0z" transform="translate(110 30)"/><path class="bar maintenance" d="M761.259 280.964H820v37.108h-58.741z" transform="translate(110 30)"/><path class="bar-join maintenance" d="M760.259 280.964h2v37.108h-2z" transform="translate(110 30)"/><g><path class="bar active" d="M253.432 280.964h507.827v37.108H253.432z" transform="translate(110 30)"/><path class="bar-join active" d="M252.432 280.964h2v37.108h-2z" transform="translate(110 30)"/><text class="label" x="268.432" y="301.518" transform="translate(110 30)">active</text></g><g><path class="bar current" d="M78.053 280.964h175.379v37.108H78.053z" transform="translate(110 30)"/><text class="label" x="93.053" y="301.518" transform="translate(110 30)">current</text></g><g><path class="bar maintenance" d="M409.538 333.976h58.781v37.108h-58.781z" transform="translate(110 30)"/><path class="bar-join maintenance" d="M408.538 333.976h2v37.108h-2z" transform="translate(110 30)"/></g><g><path class="bar current" d="M253.432 333.976h156.106v37.108H253.432z" transform="translate(110 30)"/><text class="label" x="268.432" y="354.53" transform="translate(110 30)">current</text></g><g><path class="bar active" d="M604.189 386.988H820v37.108H604.189z" transform="translate(110 30)"/><path class="bar-join active" d="M603.189 386.988h2v37.108h-2z" transform="translate(110 30)"/><text class="label" x="619.189" y="407.542" transform="translate(110 30)">active</text></g><g><path class="bar current" d="M428.811 386.988H604.19v37.108H428.811z" transform="translate(110 30)"/><text class="label" x="443.811" y="407.542" transform="translate(110 30)">current</text></g></g></svg>