<svg xmlns="http://www.w3.org/2000/svg" width="960" height="500"><defs><style>.current{fill:#2aa748}.active{fill:#47b4ff}.maintenance,.tick text{fill:#89a19d}.unstable{fill:#ffb800}.bar-join,.label{fill:#fff}.bar-join.current{display:none}.tick text{font:16px sans-serif}.axis--y .tick text{text-anchor:end}.label{font:20px sans-serif;font-weight:100;text-anchor:start;dominant-baseline:middle;text-transform:uppercase}</style></defs><g id="bar-container"><g class="axis axis--x" fill="none" font-size="10" font-family="sans-serif" text-anchor="middle"><g class="tick"><path stroke="#89a19d" d="M.5 0v440" transform="translate(111.255 30)"/><text fill="#000" x=".5" dy="-10" transform="translate(111.255 30)">Oct 2018</text></g><g class="tick"><path stroke="#89a19d" stroke-dasharray="2,2" d="M.5 0v440" transform="translate(210.303 30)"/><text fill="#000" x=".5" dy="-10" transform="translate(210.303 30)">Jan 2019</text></g><g class="tick"><path stroke="#89a19d" d="M.5 0v440" transform="translate(307.108 30)"/><text fill="#000" x=".5" dy="-10" transform="translate(307.108 30)">Apr 2019</text></g><g class="tick"><path stroke="#89a19d" stroke-dasharray="2,2" d="M.5 0v440" transform="translate(405.035 30)"/><text fill="#000" x=".5" dy="-10" transform="translate(405.035 30)">Jul 2019</text></g><g class="tick"><path stroke="#89a19d" d="M.5 0v440" transform="translate(504.038 30)"/><text fill="#000" x=".5" dy="-10" transform="translate(504.038 30)">Oct 2019</text></g><g class="tick"><path stroke="#89a19d" stroke-dasharray="2,2" d="M.5 0v440" transform="translate(603.085 30)"/><text fill="#000" x=".5" dy="-10" transform="translate(603.085 30)">Jan 2020</text></g><g class="tick"><path stroke="#89a19d" d="M.5 0v440" transform="translate(700.967 30)"/><text fill="#000" x=".5" dy="-10" transform="translate(700.967 30)">Apr 2020</text></g><g class="tick"><path stroke="#89a19d" stroke-dasharray="2,2" d="M.5 0v440" transform="translate(798.893 30)"/><text fill="#000" x=".5" dy="-10" transform="translate(798.893 30)">Jul 2020</text></g><g class="tick"><path stroke="#89a19d" d="M.5 0v440" transform="translate(897.896 30)"/><text fill="#000" x=".5" dy="-10" transform="translate(897.896 30)">Oct 2020</text></g></g><g class="axis axis--y" fill="none" font-size="10" font-family="sans-serif"><g class="tick"><path stroke="#e1e7e7" d="M0 .5h820" transform="translate(110 75.397)"/><text fill="#000" y=".5" dy=".32em" dx="-10" transform="translate(110 75.397)">Master</text></g><g class="tick"><path stroke="#e1e7e7" d="M0 .5h820" transform="translate(110 145.238)"/><text fill="#000" y=".5" dy=".32em" dx="-10" transform="translate(110 145.238)">Node.js 6</text></g><g class="tick"><path stroke="#e1e7e7" d="M0 .5h820" transform="translate(110 215.08)"/><text fill="#000" y=".5" dy=".32em" dx="-10" transform="translate(110 215.08)">Node.js 8</text></g><g class="tick"><path stroke="#e1e7e7" d="M0 .5h820" transform="translate(110 284.92)"/><text fill="#000" y=".5" dy=".32em" dx="-10" transform="translate(110 284.92)">Node.js 10</text></g><g class="tick"><path stroke="#e1e7e7" d="M0 .5h820" transform="translate(110 354.762)"/><text fill="#000" y=".5" dy=".32em" dx="-10" transform="translate(110 354.762)">Node.js 11</text></g><g class="tick"><path stroke="#e1e7e7" d="M0 .5h820" transform="translate(110 424.603)"/><text fill="#000" y=".5" dy=".32em" dx="-10" transform="translate(110 424.603)">Node.js 12</text></g><path stroke="#89a19d" d="M0 440h820" transform="translate(110 30)"/></g><path class="bar unstable" d="M0 20.952h820v48.889H0z" transform="translate(110 30)"/><text class="label" x="15" y="47.397" transform="translate(110 30)">unstable</text><path class="bar maintenance" d="M0 90.794h196.929v48.889H0z" transform="translate(110 30)"/><text class="label" x="15" y="117.238" transform="translate(110 30)">maintenance</text><path class="bar maintenance" d="M100.079 160.635h391.706v48.889H100.079z" transform="translate(110 30)"/><path class="bar-join maintenance" d="M99.079 160.635h2v48.889h-2z" transform="translate(110 30)"/><text class="label" x="115.079" y="187.079" transform="translate(110 30)">maintenance</text><path class="bar active" d="M0 160.635h100.079v48.889H0z" transform="translate(110 30)"/><text class="label" x="15" y="187.079" transform="translate(110 30)">active</text><path class="bar maintenance" d="M590.787 230.476H820v48.889H590.787z" transform="translate(110 30)"/><path class="bar-join maintenance" d="M589.787 230.476h2v48.889h-2z" transform="translate(110 30)"/><text class="label" x="605.787" y="256.921" transform="translate(110 30)">maintenance</text><g><path class="bar active" d="M32.283 230.476h558.504v48.889H32.283z" transform="translate(110 30)"/><path class="bar-join active" d="M31.283 230.476h2v48.889h-2z" transform="translate(110 30)"/><text class="label" x="47.283" y="256.921" transform="translate(110 30)">active</text></g><g><path class="bar current" d="M0 230.476h32.283v48.889H0z" transform="translate(110 30)"/></g><g><path class="bar maintenance" d="M196.929 300.317h96.85v48.889h-96.85z" transform="translate(110 30)"/><path class="bar-join maintenance" d="M195.929 300.317h2v48.889h-2z" transform="translate(110 30)"/></g><g><path class="bar current" d="M24.751 300.317h172.178v48.889H24.751z" transform="translate(110 30)"/><text class="label" x="39.751" y="326.762" transform="translate(110 30)">current</text></g><g><path class="bar active" d="M416.457 370.159H820v48.889H416.457z" transform="translate(110 30)"/><path class="bar-join active" d="M415.457 370.159h2v48.889h-2z" transform="translate(110 30)"/><text class="label" x="431.457" y="396.603" transform="translate(110 30)">active</text></g><g><path class="bar current" d="M220.604 370.159h195.853v48.889H220.604z" transform="translate(110 30)"/><text class="label" x="235.604" y="396.603" transform="translate(110 30)">current</text></g></g></svg>