<svg xmlns="http://www.w3.org/2000/svg" width="960" height="500"><defs><style>.current{fill:#2aa748}.active{fill:#47b4ff}.maintenance,.tick text{fill:#89a19d}.unstable{fill:#ffb800}.bar-join,.label{fill:#fff}.bar-join.current{display:none}.tick text{font:16px sans-serif}.axis--y .tick text{text-anchor:end}.label{font:20px sans-serif;font-weight:100;text-anchor:start;dominant-baseline:middle;text-transform:uppercase}</style></defs><g id="bar-container"><g class="axis axis--x" fill="none" font-size="10" font-family="sans-serif" text-anchor="middle"><g class="tick"><path stroke="#89a19d" d="M.5 0v440" transform="translate(110 30)"/><text fill="#000" x=".5" dy="-10" transform="translate(110 30)">Jul 2020</text></g><g class="tick"><path stroke="#89a19d" stroke-dasharray="2,2" d="M.5 0v440" transform="translate(198.54 30)"/><text fill="#000" x=".5" dy="-10" transform="translate(198.54 30)">Oct 2020</text></g><g class="tick"><path stroke="#89a19d" d="M.5 0v440" transform="translate(287.12 30)"/><text fill="#000" x=".5" dy="-10" transform="translate(287.12 30)">Jan 2021</text></g><g class="tick"><path stroke="#89a19d" stroke-dasharray="2,2" d="M.5 0v440" transform="translate(373.696 30)"/><text fill="#000" x=".5" dy="-10" transform="translate(373.696 30)">Apr 2021</text></g><g class="tick"><path stroke="#89a19d" d="M.5 0v440" transform="translate(461.274 30)"/><text fill="#000" x=".5" dy="-10" transform="translate(461.274 30)">Jul 2021</text></g><g class="tick"><path stroke="#89a19d" stroke-dasharray="2,2" d="M.5 0v440" transform="translate(549.814 30)"/><text fill="#000" x=".5" dy="-10" transform="translate(549.814 30)">Oct 2021</text></g><g class="tick"><path stroke="#89a19d" d="M.5 0v440" transform="translate(638.395 30)"/><text fill="#000" x=".5" dy="-10" transform="translate(638.395 30)">Jan 2022</text></g><g class="tick"><path stroke="#89a19d" stroke-dasharray="2,2" d="M.5 0v440" transform="translate(724.97 30)"/><text fill="#000" x=".5" dy="-10" transform="translate(724.97 30)">Apr 2022</text></g><g class="tick"><path stroke="#89a19d" d="M.5 0v440" transform="translate(812.548 30)"/><text fill="#000" x=".5" dy="-10" transform="translate(812.548 30)">Jul 2022</text></g><g class="tick"><path stroke="#89a19d" stroke-dasharray="2,2" d="M.5 0v440" transform="translate(901.088 30)"/><text fill="#000" x=".5" dy="-10" transform="translate(901.088 30)">Oct 2022</text></g></g><g class="axis axis--y" fill="none" font-size="10" font-family="sans-serif"><g class="tick"><path stroke="#e1e7e7" d="M0 .5h820" transform="translate(110 75.397)"/><text fill="#000" y=".5" dy=".32em" dx="-10" transform="translate(110 75.397)">Master</text></g><g class="tick"><path stroke="#e1e7e7" d="M0 .5h820" transform="translate(110 145.238)"/><text fill="#000" y=".5" dy=".32em" dx="-10" transform="translate(110 145.238)">Node.js 10</text></g><g class="tick"><path stroke="#e1e7e7" d="M0 .5h820" transform="translate(110 215.08)"/><text fill="#000" y=".5" dy=".32em" dx="-10" transform="translate(110 215.08)">Node.js 12</text></g><g class="tick"><path stroke="#e1e7e7" d="M0 .5h820" transform="translate(110 284.92)"/><text fill="#000" y=".5" dy=".32em" dx="-10" transform="translate(110 284.92)">Node.js 14</text></g><g class="tick"><path stroke="#e1e7e7" d="M0 .5h820" transform="translate(110 354.762)"/><text fill="#000" y=".5" dy=".32em" dx="-10" transform="translate(110 354.762)">Node.js 15</text></g><g class="tick"><path stroke="#e1e7e7" d="M0 .5h820" transform="translate(110 424.603)"/><text fill="#000" y=".5" dy=".32em" dx="-10" transform="translate(110 424.603)">Node.js 16</text></g><path stroke="#89a19d" d="M0 440h820" transform="translate(110 30)"/></g><path class="bar unstable" d="M0 20.952h820v48.889H0z" transform="translate(110 30)"/><text class="label" x="15" y="47.397" transform="translate(110 30)">unstable</text><path class="bar maintenance" d="M0 90.794h291.646v48.889H0z" transform="translate(110 30)"/><text class="label" x="15" y="117.238" transform="translate(110 30)">maintenance</text><path class="bar maintenance" d="M106.866 160.635H642.92v48.889H106.866z" transform="translate(110 30)"/><path class="bar-join maintenance" d="M105.866 160.635h2v48.889h-2z" transform="translate(110 30)"/><text class="label" x="121.866" y="187.079" transform="translate(110 30)">maintenance</text><path class="bar active" d="M0 160.635h106.866v48.889H0z" transform="translate(110 30)"/><text class="label" x="15" y="187.079" transform="translate(110 30)">active</text><path class="bar maintenance" d="M457.177 230.476H820v48.889H457.177z" transform="translate(110 30)"/><path class="bar-join maintenance" d="M456.177 230.476h2v48.889h-2z" transform="translate(110 30)"/><text class="label" x="472.177" y="256.921" transform="translate(110 30)">maintenance</text><g><path class="bar active" d="M113.603 230.476h343.575v48.889H113.603z" transform="translate(110 30)"/><path class="bar-join active" d="M112.603 230.476h2v48.889h-2z" transform="translate(110 30)"/><text class="label" x="128.603" y="256.921" transform="translate(110 30)">active</text></g><g><path class="bar current" d="M0 230.476h113.603v48.889H0z" transform="translate(110 30)"/><text class="label" x="15" y="256.921" transform="translate(110 30)">current</text></g><g><path class="bar maintenance" d="M263.736 300.317h58.706v48.889h-58.706z" transform="translate(110 30)"/><path class="bar-join maintenance" d="M262.736 300.317h2v48.889h-2z" transform="translate(110 30)"/></g><g><path class="bar current" d="M106.866 300.317h156.87v48.889h-156.87z" transform="translate(110 30)"/><text class="label" x="121.866" y="326.762" transform="translate(110 30)">current</text></g><g><path class="bar maintenance" d="M807.489 370.159H820v48.889h-12.511z" transform="translate(110 30)"/><path class="bar-join maintenance" d="M806.489 370.159h2v48.889h-2z" transform="translate(110 30)"/></g><g><path class="bar active" d="M457.177 370.159h350.312v48.889H457.177z" transform="translate(110 30)"/><path class="bar-join active" d="M456.177 370.159h2v48.889h-2z" transform="translate(110 30)"/><text class="label" x="472.177" y="396.603" transform="translate(110 30)">active</text></g><g><path class="bar current" d="M282.022 370.159h175.156v48.889H282.022z" transform="translate(110 30)"/><text class="label" x="297.022" y="396.603" transform="translate(110 30)">current</text></g></g></svg>