<svg xmlns="http://www.w3.org/2000/svg" width="960" height="500"><defs><style>.current{fill:#2aa748}.active{fill:#47b4ff}.maintenance,.tick text{fill:#89a19d}.unstable{fill:#ffb800}.bar-join,.label{fill:#fff}.bar-join.current{display:none}.tick text{font:16px sans-serif}.axis--y .tick text{text-anchor:end}.label{font:20px sans-serif;font-weight:100;text-anchor:start;dominant-baseline:middle;text-transform:uppercase}</style></defs><g id="bar-container"><g class="axis axis--x" fill="none" font-size="10" font-family="sans-serif" text-anchor="middle"><g class="tick"><path stroke="#89a19d" d="M.5 0v440" transform="translate(110.234 30)"/><text fill="#000" x=".5" dy="-10" transform="translate(110.234 30)">Jan 2020</text></g><g class="tick"><path stroke="#89a19d" stroke-dasharray="2,2" d="M.5 0v440" transform="translate(212.406 30)"/><text fill="#000" x=".5" dy="-10" transform="translate(212.406 30)">Apr 2020</text></g><g class="tick"><path stroke="#89a19d" d="M.5 0v440" transform="translate(314.626 30)"/><text fill="#000" x=".5" dy="-10" transform="translate(314.626 30)">Jul 2020</text></g><g class="tick"><path stroke="#89a19d" stroke-dasharray="2,2" d="M.5 0v440" transform="translate(417.968 30)"/><text fill="#000" x=".5" dy="-10" transform="translate(417.968 30)">Oct 2020</text></g><g class="tick"><path stroke="#89a19d" d="M.5 0v440" transform="translate(521.357 30)"/><text fill="#000" x=".5" dy="-10" transform="translate(521.357 30)">Jan 2021</text></g><g class="tick"><path stroke="#89a19d" stroke-dasharray="2,2" d="M.5 0v440" transform="translate(622.406 30)"/><text fill="#000" x=".5" dy="-10" transform="translate(622.406 30)">Apr 2021</text></g><g class="tick"><path stroke="#89a19d" d="M.5 0v440" transform="translate(724.626 30)"/><text fill="#000" x=".5" dy="-10" transform="translate(724.626 30)">Jul 2021</text></g><g class="tick"><path stroke="#89a19d" stroke-dasharray="2,2" d="M.5 0v440" transform="translate(827.968 30)"/><text fill="#000" x=".5" dy="-10" transform="translate(827.968 30)">Oct 2021</text></g></g><g class="axis axis--y" fill="none" font-size="10" font-family="sans-serif"><g class="tick"><path stroke="#e1e7e7" d="M0 .5h820" transform="translate(110 75.397)"/><text fill="#000" y=".5" dy=".32em" dx="-10" transform="translate(110 75.397)">Master</text></g><g class="tick"><path stroke="#e1e7e7" d="M0 .5h820" transform="translate(110 145.238)"/><text fill="#000" y=".5" dy=".32em" dx="-10" transform="translate(110 145.238)">Node.js 10</text></g><g class="tick"><path stroke="#e1e7e7" d="M0 .5h820" transform="translate(110 215.08)"/><text fill="#000" y=".5" dy=".32em" dx="-10" transform="translate(110 215.08)">Node.js 12</text></g><g class="tick"><path stroke="#e1e7e7" d="M0 .5h820" transform="translate(110 284.92)"/><text fill="#000" y=".5" dy=".32em" dx="-10" transform="translate(110 284.92)">Node.js 13</text></g><g class="tick"><path stroke="#e1e7e7" d="M0 .5h820" transform="translate(110 354.762)"/><text fill="#000" y=".5" dy=".32em" dx="-10" transform="translate(110 354.762)">Node.js 14</text></g><g class="tick"><path stroke="#e1e7e7" d="M0 .5h820" transform="translate(110 424.603)"/><text fill="#000" y=".5" dy=".32em" dx="-10" transform="translate(110 424.603)">Node.js 15</text></g><path stroke="#89a19d" d="M0 440h820" transform="translate(110 30)"/></g><path class="bar unstable" d="M0 20.952h820v48.889H0z" transform="translate(110 30)"/><text class="label" x="15" y="47.397" transform="translate(110 30)">unstable</text><path class="bar maintenance" d="M156.137 90.794h388.658v48.889H156.137z" transform="translate(110 30)"/><path class="bar-join maintenance" d="M155.137 90.794h2v48.889h-2z" transform="translate(110 30)"/><text class="label" x="171.137" y="117.238" transform="translate(110 30)">maintenance</text><path class="bar active" d="M0 90.794h156.137v48.889H0z" transform="translate(110 30)"/><text class="label" x="15" y="117.238" transform="translate(110 30)">active</text><path class="bar maintenance" d="M329.123 160.635H820v48.889H329.123z" transform="translate(110 30)"/><path class="bar-join maintenance" d="M328.123 160.635h2v48.889h-2z" transform="translate(110 30)"/><text class="label" x="344.123" y="187.079" transform="translate(110 30)">maintenance</text><path class="bar active" d="M0 160.635h329.123v48.889H0z" transform="translate(110 30)"/><text class="label" x="15" y="187.079" transform="translate(110 30)">active</text><g><path class="bar maintenance" d="M102.219 230.476h68.521v48.889h-68.521z" transform="translate(110 30)"/><path class="bar-join maintenance" d="M101.219 230.476h2v48.889h-2z" transform="translate(110 30)"/></g><g><path class="bar current" d="M0 230.476h102.219v48.889H0z" transform="translate(110 30)"/><text class="label" x="15" y="256.921" transform="translate(110 30)">current</text></g><g><path class="bar maintenance" d="M738 300.317h82v48.889h-82z" transform="translate(110 30)"/><path class="bar-join maintenance" d="M737 300.317h2v48.889h-2z" transform="translate(110 30)"/></g><g><path class="bar active" d="M329.123 300.317H738v48.889H329.123z" transform="translate(110 30)"/><path class="bar-join active" d="M328.123 300.317h2v48.889h-2z" transform="translate(110 30)"/><text class="label" x="344.123" y="326.762" transform="translate(110 30)">active</text></g><g><path class="bar current" d="M124.685 300.317h204.438v48.889H124.685z" transform="translate(110 30)"/><text class="label" x="139.685" y="326.762" transform="translate(110 30)">current</text></g><g><path class="bar maintenance" d="M512.219 370.159h68.521v48.889h-68.521z" transform="translate(110 30)"/><path class="bar-join maintenance" d="M511.219 370.159h2v48.889h-2z" transform="translate(110 30)"/></g><g><path class="bar current" d="M330.247 370.159H512.22v48.889H330.247z" transform="translate(110 30)"/><text class="label" x="345.247" y="396.603" transform="translate(110 30)">current</text></g></g></svg>