<svg xmlns="http://www.w3.org/2000/svg" width="960" height="500"><defs><style>.current{fill:#2aa748}.active{fill:#47b4ff}.maintenance,.tick text{fill:#89a19d}.unstable{fill:#ffb800}.bar-join,.label{fill:#fff}.bar-join.current{display:none}.tick text{font:16px sans-serif}.axis--y .tick text{text-anchor:end}.label{font:20px sans-serif;font-weight:100;text-anchor:start;dominant-baseline:middle;text-transform:uppercase}</style></defs><g id="bar-container"><g class="axis axis--x" fill="none" font-size="10" font-family="sans-serif" text-anchor="middle"><g class="tick"><path stroke="#89a19d" d="M.5 0v440" transform="translate(168.775 30)"/><text fill="#000" x=".5" dy="-10" transform="translate(168.775 30)">Oct 2020</text></g><g class="tick"><path stroke="#89a19d" stroke-dasharray="2,2" d="M.5 0v440" transform="translate(257.46 30)"/><text fill="#000" x=".5" dy="-10" transform="translate(257.46 30)">Jan 2021</text></g><g class="tick"><path stroke="#89a19d" d="M.5 0v440" transform="translate(344.137 30)"/><text fill="#000" x=".5" dy="-10" transform="translate(344.137 30)">Apr 2021</text></g><g class="tick"><path stroke="#89a19d" stroke-dasharray="2,2" d="M.5 0v440" transform="translate(431.817 30)"/><text fill="#000" x=".5" dy="-10" transform="translate(431.817 30)">Jul 2021</text></g><g class="tick"><path stroke="#89a19d" d="M.5 0v440" transform="translate(520.462 30)"/><text fill="#000" x=".5" dy="-10" transform="translate(520.462 30)">Oct 2021</text></g><g class="tick"><path stroke="#89a19d" stroke-dasharray="2,2" d="M.5 0v440" transform="translate(609.146 30)"/><text fill="#000" x=".5" dy="-10" transform="translate(609.146 30)">Jan 2022</text></g><g class="tick"><path stroke="#89a19d" d="M.5 0v440" transform="translate(695.823 30)"/><text fill="#000" x=".5" dy="-10" transform="translate(695.823 30)">Apr 2022</text></g><g class="tick"><path stroke="#89a19d" stroke-dasharray="2,2" d="M.5 0v440" transform="translate(783.504 30)"/><text fill="#000" x=".5" dy="-10" transform="translate(783.504 30)">Jul 2022</text></g><g class="tick"><path stroke="#89a19d" d="M.5 0v440" transform="translate(872.148 30)"/><text fill="#000" x=".5" dy="-10" transform="translate(872.148 30)">Oct 2022</text></g></g><g class="axis axis--y" fill="none" font-size="10" font-family="sans-serif"><g class="tick"><path stroke="#e1e7e7" d="M0 .5h820" transform="translate(110 75.397)"/><text fill="#000" y=".5" dy=".32em" dx="-10" transform="translate(110 75.397)">Master</text></g><g class="tick"><path stroke="#e1e7e7" d="M0 .5h820" transform="translate(110 145.238)"/><text fill="#000" y=".5" dy=".32em" dx="-10" transform="translate(110 145.238)">Node.js 10</text></g><g class="tick"><path stroke="#e1e7e7" d="M0 .5h820" transform="translate(110 215.08)"/><text fill="#000" y=".5" dy=".32em" dx="-10" transform="translate(110 215.08)">Node.js 12</text></g><g class="tick"><path stroke="#e1e7e7" d="M0 .5h820" transform="translate(110 284.92)"/><text fill="#000" y=".5" dy=".32em" dx="-10" transform="translate(110 284.92)">Node.js 14</text></g><g class="tick"><path stroke="#e1e7e7" d="M0 .5h820" transform="translate(110 354.762)"/><text fill="#000" y=".5" dy=".32em" dx="-10" transform="translate(110 354.762)">Node.js 15</text></g><g class="tick"><path stroke="#e1e7e7" d="M0 .5h820" transform="translate(110 424.603)"/><text fill="#000" y=".5" dy=".32em" dx="-10" transform="translate(110 424.603)">Node.js 16</text></g><path stroke="#89a19d" d="M0 440h820" transform="translate(110 30)"/></g><path class="bar unstable" d="M0 20.952h820v48.889H0z" transform="translate(110 30)"/><text class="label" x="15" y="47.397" transform="translate(110 30)">unstable</text><path class="bar maintenance" d="M0 90.794h262.119v48.889H0z" transform="translate(110 30)"/><text class="label" x="15" y="117.238" transform="translate(110 30)">maintenance</text><path class="bar maintenance" d="M77.122 160.635h536.683v48.889H77.122z" transform="translate(110 30)"/><path class="bar-join maintenance" d="M76.122 160.635h2v48.889h-2z" transform="translate(110 30)"/><text class="label" x="92.122" y="187.079" transform="translate(110 30)">maintenance</text><path class="bar active" d="M0 160.635h77.122v48.889H0z" transform="translate(110 30)"/><path class="bar maintenance" d="M427.845 230.476H820v48.889H427.845z" transform="translate(110 30)"/><path class="bar-join maintenance" d="M426.845 230.476h2v48.889h-2z" transform="translate(110 30)"/><text class="label" x="442.845" y="256.921" transform="translate(110 30)">maintenance</text><path class="bar active" d="M83.867 230.476h343.978v48.889H83.867z" transform="translate(110 30)"/><path class="bar-join active" d="M82.867 230.476h2v48.889h-2z" transform="translate(110 30)"/><text class="label" x="98.867" y="256.921" transform="translate(110 30)">active</text><g><path class="bar current" d="M0 230.476h83.867v48.889H0z" transform="translate(110 30)"/></g><g><path class="bar maintenance" d="M234.177 300.317h58.775v48.889h-58.775z" transform="translate(110 30)"/><path class="bar-join maintenance" d="M233.177 300.317h2v48.889h-2z" transform="translate(110 30)"/></g><g><path class="bar current" d="M77.122 300.317h157.055v48.889H77.122z" transform="translate(110 30)"/><text class="label" x="92.122" y="326.762" transform="translate(110 30)">current</text></g><g><path class="bar maintenance" d="M778.568 370.159H820v48.889h-41.432z" transform="translate(110 30)"/><path class="bar-join maintenance" d="M777.568 370.159h2v48.889h-2z" transform="translate(110 30)"/></g><g><path class="bar active" d="M434.59 370.159h343.978v48.889H434.59z" transform="translate(110 30)"/><path class="bar-join active" d="M433.59 370.159h2v48.889h-2z" transform="translate(110 30)"/><text class="label" x="449.59" y="396.603" transform="translate(110 30)">active</text></g><g><path class="bar current" d="M252.484 370.159H434.59v48.889H252.484z" transform="translate(110 30)"/><text class="label" x="267.484" y="396.603" transform="translate(110 30)">current</text></g></g></svg>