<svg xmlns="http://www.w3.org/2000/svg" width="960" height="500"><defs><style>.current{fill:#2aa748}.active{fill:#47b4ff}.maintenance,.tick text{fill:#89a19d}.unstable{fill:#ffb800}.bar-join,.label{fill:#fff}.bar-join.current{display:none}.tick text{font:16px sans-serif}.axis--y .tick text{text-anchor:end}.label{font:20px sans-serif;font-weight:100;text-anchor:start;dominant-baseline:middle;text-transform:uppercase}</style></defs><g id="bar-container"><g class="axis axis--x" fill="none" font-size="10" font-family="sans-serif" text-anchor="middle"><g class="tick"><path stroke="#89a19d" d="M.5 0v440" transform="translate(145.195 30)"/><text fill="#000" x=".5" dy="-10" transform="translate(145.195 30)">Jul 2021</text></g><g class="tick"><path stroke="#89a19d" stroke-dasharray="2,2" d="M.5 0v440" transform="translate(253.275 30)"/><text fill="#000" x=".5" dy="-10" transform="translate(253.275 30)">Oct 2021</text></g><g class="tick"><path stroke="#89a19d" d="M.5 0v440" transform="translate(361.404 30)"/><text fill="#000" x=".5" dy="-10" transform="translate(361.404 30)">Jan 2022</text></g><g class="tick"><path stroke="#89a19d" stroke-dasharray="2,2" d="M.5 0v440" transform="translate(467.086 30)"/><text fill="#000" x=".5" dy="-10" transform="translate(467.086 30)">Apr 2022</text></g><g class="tick"><path stroke="#89a19d" d="M.5 0v440" transform="translate(573.991 30)"/><text fill="#000" x=".5" dy="-10" transform="translate(573.991 30)">Jul 2022</text></g><g class="tick"><path stroke="#89a19d" stroke-dasharray="2,2" d="M.5 0v440" transform="translate(682.071 30)"/><text fill="#000" x=".5" dy="-10" transform="translate(682.071 30)">Oct 2022</text></g><g class="tick"><path stroke="#89a19d" d="M.5 0v440" transform="translate(790.2 30)"/><text fill="#000" x=".5" dy="-10" transform="translate(790.2 30)">Jan 2023</text></g><g class="tick"><path stroke="#89a19d" stroke-dasharray="2,2" d="M.5 0v440" transform="translate(895.882 30)"/><text fill="#000" x=".5" dy="-10" transform="translate(895.882 30)">Apr 2023</text></g></g><g class="axis axis--y" fill="none" font-size="10" font-family="sans-serif"><g class="tick"><path stroke="#e1e7e7" d="M0 .5h820" transform="translate(110 75.397)"/><text fill="#000" y=".5" dy=".32em" dx="-10" transform="translate(110 75.397)">Master</text></g><g class="tick"><path stroke="#e1e7e7" d="M0 .5h820" transform="translate(110 145.238)"/><text fill="#000" y=".5" dy=".32em" dx="-10" transform="translate(110 145.238)">Node.js 12</text></g><g class="tick"><path stroke="#e1e7e7" d="M0 .5h820" transform="translate(110 215.08)"/><text fill="#000" y=".5" dy=".32em" dx="-10" transform="translate(110 215.08)">Node.js 14</text></g><g class="tick"><path stroke="#e1e7e7" d="M0 .5h820" transform="translate(110 284.92)"/><text fill="#000" y=".5" dy=".32em" dx="-10" transform="translate(110 284.92)">Node.js 16</text></g><g class="tick"><path stroke="#e1e7e7" d="M0 .5h820" transform="translate(110 354.762)"/><text fill="#000" y=".5" dy=".32em" dx="-10" transform="translate(110 354.762)">Node.js 17</text></g><g class="tick"><path stroke="#e1e7e7" d="M0 .5h820" transform="translate(110 424.603)"/><text fill="#000" y=".5" dy=".32em" dx="-10" transform="translate(110 424.603)">Node.js 18</text></g><path stroke="#89a19d" d="M0 440h820" transform="translate(110 30)"/></g><path class="bar unstable" d="M0 20.952h820v48.889H0z" transform="translate(110 30)"/><text class="label" x="15" y="47.397" style="opacity:1" transform="translate(110 30)">unstable</text><path class="bar maintenance" d="M0 90.794h391.203v48.889H0z" transform="translate(110 30)"/><text class="label" x="15" y="117.238" style="opacity:1" transform="translate(110 30)">maintenance</text><path class="bar maintenance" d="M164.47 160.635H820v48.889H164.47z" transform="translate(110 30)"/><path class="bar-join maintenance" style="opacity:1" d="M163.47 160.635h2v48.889h-2z" transform="translate(110 30)"/><text class="label" x="179.47" y="187.079" style="opacity:1" transform="translate(110 30)">maintenance</text><path class="bar active" d="M0 160.635h164.47v48.889H0z" transform="translate(110 30)"/><text class="label" x="15" y="187.079" style="opacity:1" transform="translate(110 30)">active</text><path class="bar maintenance" d="M592.092 230.476H820v48.889H592.092z" transform="translate(110 30)"/><path class="bar-join maintenance" style="opacity:1" d="M591.092 230.476h2v48.889h-2z" transform="translate(110 30)"/><text class="label" x="607.092" y="256.921" style="opacity:1" transform="translate(110 30)">maintenance</text><g><path class="bar active" d="M172.693 230.476h419.398v48.889H172.693z" transform="translate(110 30)"/><path class="bar-join active" style="opacity:1" d="M171.693 230.476h2v48.889h-2z" transform="translate(110 30)"/><text class="label" x="187.693" y="256.921" style="opacity:1" transform="translate(110 30)">active</text></g><g><path class="bar current" d="M0 230.476h172.693v48.889H0z" transform="translate(110 30)"/><text class="label" x="15" y="256.921" style="opacity:1" transform="translate(110 30)">current</text></g><g><path class="bar maintenance" d="M357.135 300.317h71.662v48.889h-71.662z" transform="translate(110 30)"/><path class="bar-join maintenance" style="opacity:1" d="M356.135 300.317h2v48.889h-2z" transform="translate(110 30)"/></g><g><path class="bar current" d="M164.47 300.317h192.665v48.889H164.47z" transform="translate(110 30)"/><text class="label" x="179.47" y="326.762" style="opacity:1" transform="translate(110 30)">current</text></g><g><path class="bar active" d="M600.315 370.159H820v48.889H600.315z" transform="translate(110 30)"/><path class="bar-join active" style="opacity:1" d="M599.315 370.159h2v48.889h-2z" transform="translate(110 30)"/><text class="label" x="615.315" y="396.603" style="opacity:1" transform="translate(110 30)">active</text></g><g><path class="bar current" d="M378.281 370.159h222.034v48.889H378.281z" transform="translate(110 30)"/><text class="label" x="393.281" y="396.603" style="opacity:1" transform="translate(110 30)">current</text></g></g></svg>