<svg xmlns="http://www.w3.org/2000/svg" width="960" height="500"><defs><style>.current{fill:#2aa748}.active{fill:#47b4ff}.maintenance,.tick text{fill:#89a19d}.unstable{fill:#ffb800}.bar-join,.label{fill:#fff}.bar-join.current{display:none}.tick text{font:16px sans-serif}.axis--y .tick text{text-anchor:end}.label{font:20px sans-serif;font-weight:100;text-anchor:start;dominant-baseline:middle;text-transform:uppercase}</style></defs><g id="bar-container"><g class="axis axis--x" fill="none" font-size="10" font-family="sans-serif" text-anchor="middle"><g class="tick"><path stroke="#89a19d" d="M.5 0v440" transform="translate(111.076 30)"/><text fill="#000" x=".5" dy="-10" transform="translate(111.076 30)">Oct 2019</text></g><g class="tick"><path stroke="#89a19d" stroke-dasharray="2,2" d="M.5 0v440" transform="translate(210.145 30)"/><text fill="#000" x=".5" dy="-10" transform="translate(210.145 30)">Jan 2020</text></g><g class="tick"><path stroke="#89a19d" d="M.5 0v440" transform="translate(308.049 30)"/><text fill="#000" x=".5" dy="-10" transform="translate(308.049 30)">Apr 2020</text></g><g class="tick"><path stroke="#89a19d" stroke-dasharray="2,2" d="M.5 0v440" transform="translate(405.996 30)"/><text fill="#000" x=".5" dy="-10" transform="translate(405.996 30)">Jul 2020</text></g><g class="tick"><path stroke="#89a19d" d="M.5 0v440" transform="translate(505.02 30)"/><text fill="#000" x=".5" dy="-10" transform="translate(505.02 30)">Oct 2020</text></g><g class="tick"><path stroke="#89a19d" stroke-dasharray="2,2" d="M.5 0v440" transform="translate(604.09 30)"/><text fill="#000" x=".5" dy="-10" transform="translate(604.09 30)">Jan 2021</text></g><g class="tick"><path stroke="#89a19d" d="M.5 0v440" transform="translate(700.917 30)"/><text fill="#000" x=".5" dy="-10" transform="translate(700.917 30)">Apr 2021</text></g><g class="tick"><path stroke="#89a19d" stroke-dasharray="2,2" d="M.5 0v440" transform="translate(798.865 30)"/><text fill="#000" x=".5" dy="-10" transform="translate(798.865 30)">Jul 2021</text></g><g class="tick"><path stroke="#89a19d" d="M.5 0v440" transform="translate(897.889 30)"/><text fill="#000" x=".5" dy="-10" transform="translate(897.889 30)">Oct 2021</text></g></g><g class="axis axis--y" fill="none" font-size="10" font-family="sans-serif"><g class="tick"><path stroke="#e1e7e7" d="M0 .5h820" transform="translate(110 75.397)"/><text fill="#000" y=".5" dy=".32em" dx="-10" transform="translate(110 75.397)">Master</text></g><g class="tick"><path stroke="#e1e7e7" d="M0 .5h820" transform="translate(110 145.238)"/><text fill="#000" y=".5" dy=".32em" dx="-10" transform="translate(110 145.238)">Node.js 8</text></g><g class="tick"><path stroke="#e1e7e7" d="M0 .5h820" transform="translate(110 215.08)"/><text fill="#000" y=".5" dy=".32em" dx="-10" transform="translate(110 215.08)">Node.js 10</text></g><g class="tick"><path stroke="#e1e7e7" d="M0 .5h820" transform="translate(110 284.92)"/><text fill="#000" y=".5" dy=".32em" dx="-10" transform="translate(110 284.92)">Node.js 12</text></g><g class="tick"><path stroke="#e1e7e7" d="M0 .5h820" transform="translate(110 354.762)"/><text fill="#000" y=".5" dy=".32em" dx="-10" transform="translate(110 354.762)">Node.js 13</text></g><g class="tick"><path stroke="#e1e7e7" d="M0 .5h820" transform="translate(110 424.603)"/><text fill="#000" y=".5" dy=".32em" dx="-10" transform="translate(110 424.603)">Node.js 14</text></g><path stroke="#89a19d" d="M0 440h820" transform="translate(110 30)"/></g><path class="bar unstable" d="M0 20.952h820v48.889H0z" transform="translate(110 30)"/><text class="label" x="15" y="47.397" transform="translate(110 30)">unstable</text><path class="bar maintenance" d="M0 90.794h98.845v48.889H0zM249.534 160.635h372.417v48.889H249.534z" transform="translate(110 30)"/><path class="bar-join maintenance" d="M248.534 160.635h2v48.889h-2z" transform="translate(110 30)"/><text class="label" x="264.534" y="187.079" transform="translate(110 30)">maintenance</text><path class="bar active" d="M0 160.635h249.534v48.889H0z" transform="translate(110 30)"/><text class="label" x="15" y="187.079" transform="translate(110 30)">active</text><path class="bar maintenance" d="M415.292 230.476H820v48.889H415.292z" transform="translate(110 30)"/><path class="bar-join maintenance" d="M414.292 230.476h2v48.889h-2z" transform="translate(110 30)"/><text class="label" x="430.292" y="256.921" transform="translate(110 30)">maintenance</text><path class="bar active" d="M22.424 230.476h392.868v48.889H22.424z" transform="translate(110 30)"/><path class="bar-join active" d="M21.424 230.476h2v48.889h-2z" transform="translate(110 30)"/><text class="label" x="37.424" y="256.921" transform="translate(110 30)">active</text><g><path class="bar current" d="M0 230.476h22.424v48.889H0z" transform="translate(110 30)"/></g><g><path class="bar maintenance" d="M197.869 300.317h65.657v48.889h-65.657z" transform="translate(110 30)"/><path class="bar-join maintenance" d="M196.869 300.317h2v48.889h-2z" transform="translate(110 30)"/></g><g><path class="bar current" d="M23.5 300.317h174.369v48.889H23.5z" transform="translate(110 30)"/><text class="label" x="38.5" y="326.762" transform="translate(110 30)">current</text></g><g><path class="bar maintenance" d="M807.084 370.159H820v48.889h-12.916z" transform="translate(110 30)"/><path class="bar-join maintenance" d="M806.084 370.159h2v48.889h-2z" transform="translate(110 30)"/></g><g><path class="bar active" d="M415.292 370.159h391.792v48.889H415.292z" transform="translate(110 30)"/><path class="bar-join active" d="M414.292 370.159h2v48.889h-2z" transform="translate(110 30)"/><text class="label" x="430.292" y="396.603" transform="translate(110 30)">active</text></g><g><path class="bar current" d="M219.396 370.159h195.896v48.889H219.396z" transform="translate(110 30)"/><text class="label" x="234.396" y="396.603" transform="translate(110 30)">current</text></g></g></svg>